<?xml version="1.0" standalone="no"?><!DOCTYPE svg PUBLIC "-//W3C//DTD SVG 1.1//EN" "http://www.w3.org/Graphics/SVG/1.1/DTD/svg11.dtd"><svg t="1650353834766" class="icon" viewBox="0 0 1024 1024" version="1.1" xmlns="http://www.w3.org/2000/svg" p-id="1539" xmlns:xlink="http://www.w3.org/1999/xlink" width="200" height="200"><defs><style type="text/css">@font-face { font-family: feedback-iconfont; src: url("//at.alicdn.com/t/font_1031158_u69w8yhxdu.woff2?t=1630033759944") format("woff2"), url("//at.alicdn.com/t/font_1031158_u69w8yhxdu.woff?t=1630033759944") format("woff"), url("//at.alicdn.com/t/font_1031158_u69w8yhxdu.ttf?t=1630033759944") format("truetype"); }
</style></defs><path d="M512 195.62496c195.44064 0 353.87392 158.43328 353.87392 353.87392S707.44064 903.39328 512 903.39328c-195.44064 0-353.87392-158.43328-353.87392-353.87392S316.55936 195.62496 512 195.62496m0-18.20672c-205.16864 0-372.08064 166.912-372.08064 372.08064S306.83136 921.6 512 921.6s372.08064-166.912 372.08064-372.08064S717.16864 177.41824 512 177.41824z" p-id="1540"></path><path d="M865.87392 549.51936c0-195.44064-158.43328-353.87392-353.87392-353.87392-195.44064 0-353.87392 158.43328-353.87392 353.87392 0 66.82624 18.5344 129.31072 50.72896 182.64064l70.30784-47.16544c3.8912-2.60096 9.13408-1.55648 11.73504 2.31424 2.60096 3.87072 1.55648 9.13408-2.31424 11.73504l-70.656 47.39072c63.50848 94.65856 171.49952 156.9792 294.05184 156.9792 50.52416 0 98.54976-10.67008 142.0288-29.75744l-12.00128-22.87616a8.443904 8.443904 0 0 1 3.56352-11.40736 8.433664 8.433664 0 0 1 11.40736 3.56352l12.36992 23.57248c7.8848-3.93216 15.60576-8.11008 23.1424-12.5952l-25.06752-39.424a8.454144 8.454144 0 0 1 2.60096-11.6736 8.46848 8.46848 0 0 1 11.6736 2.60096l25.10848 39.50592c95.8464-63.36512 159.06816-171.97056 159.06816-295.40352z" fill="#EBC4A5" p-id="1541"></path><path d="M290.89792 687.28832a8.464384 8.464384 0 0 0-11.73504-2.31424l-70.30784 47.16544c2.92864 4.83328 5.95968 9.58464 9.09312 14.27456l70.656-47.39072a8.45824 8.45824 0 0 0 2.29376-11.73504zM645.59104 839.35232a8.443904 8.443904 0 0 0-3.56352 11.40736l12.00128 22.87616c5.18144-2.27328 10.28096-4.66944 15.33952-7.168l-12.36992-23.57248a8.454144 8.454144 0 0 0-11.40736-3.54304zM670.06464 802.77504c-3.95264 2.49856-5.09952 7.72096-2.60096 11.6736l25.06752 39.424c4.85376-2.88768 9.6256-5.87776 14.31552-8.99072l-25.10848-39.50592a8.476672 8.476672 0 0 0-11.6736-2.60096z" fill="#BB8972" p-id="1542"></path><path d="M512 549.51936m-268.94336 0a268.94336 268.94336 0 1 0 537.88672 0 268.94336 268.94336 0 1 0-537.88672 0Z" fill="#E9E0D7" p-id="1543"></path><path d="M512 280.55552c148.54144 0 268.94336 120.4224 268.94336 268.94336S660.54144 818.46272 512 818.46272s-268.94336-120.4224-268.94336-268.94336S363.45856 280.55552 512 280.55552m0-18.20672c-158.33088 0-287.15008 128.8192-287.15008 287.15008S353.66912 836.66944 512 836.66944s287.15008-128.8192 287.15008-287.15008S670.33088 262.3488 512 262.3488z" p-id="1544"></path><path d="M512 549.51936m-215.16288 0a215.16288 215.16288 0 1 0 430.32576 0 215.16288 215.16288 0 1 0-430.32576 0Z" fill="#E49979" p-id="1545"></path><path d="M512 334.35648c118.82496 0 215.16288 96.33792 215.16288 215.16288S630.82496 764.66176 512 764.66176s-215.16288-96.33792-215.16288-215.16288S393.17504 334.35648 512 334.35648m0-18.20672c-128.67584 0-233.3696 104.69376-233.3696 233.3696S383.32416 782.88896 512 782.88896s233.3696-104.69376 233.3696-233.3696S640.67584 316.14976 512 316.14976z" p-id="1546"></path><path d="M512 549.51936m-193.6384 0a193.6384 193.6384 0 1 0 387.2768 0 193.6384 193.6384 0 1 0-387.2768 0Z" fill="#F3A388" p-id="1547"></path><path d="M512 549.51936m-116.18304 0a116.18304 116.18304 0 1 0 232.36608 0 116.18304 116.18304 0 1 0-232.36608 0Z" fill="#F9AC98" p-id="1548"></path><path d="M848.50688 288.5632c0.36864 0.2048 0.45056 0.26624 0.8192 0.47104v72.21248c0 36.864-23.04 69.91872-57.7536 82.3296-70.12352 25.02656-169.00096 40.63232-278.60992 40.63232-111.02208 0-211.08736-15.99488-281.3952-41.59488-34.46784-12.55424-57.28256-45.4656-57.28256-82.14528v-69.98016c1.45408-0.8192 1.78176-1.00352 3.23584-1.8432 66.1504 39.81312 191.52896 66.70336 335.44192 66.70336 143.95392 0 269.4144-26.9312 335.54432-66.78528m-0.18432-21.15584l-9.216 5.57056c-65.65888 39.58784-190.62784 64.16384-326.16448 64.16384-135.43424 0-260.36224-24.55552-326.0416-64.1024l-9.1136-5.48864-9.25696 5.24288-0.73728 0.43008-2.49856 1.41312-9.23648 5.2224V360.448c0 44.27776 27.83232 84.1728 69.26336 99.26656 75.61216 27.52512 177.7664 42.7008 287.62112 42.7008 108.29824 0 209.408-14.80704 284.73344-41.69728 41.7792-14.90944 69.85728-54.8864 69.85728-99.47136V278.54848l-9.07264-5.26336-0.28672-0.16384-0.53248-0.3072-9.3184-5.40672z" p-id="1549"></path><path d="M848.50688 288.5632c-66.10944 39.85408-191.56992 66.78528-335.5648 66.78528-143.89248 0-269.29152-26.89024-335.44192-66.70336-1.45408 0.8192-1.78176 1.00352-3.23584 1.8432V360.448c0 36.67968 22.81472 69.59104 57.28256 82.14528 14.848 5.40672 31.08864 10.36288 48.41472 14.848v-11.22304c0-4.7104 3.82976-8.54016 8.54016-8.54016s8.54016 3.82976 8.54016 8.54016v15.38048c61.60384 14.2336 135.86432 22.56896 215.90016 22.56896 28.81536 0 56.85248-1.10592 83.8656-3.15392v-32.27648c0-4.7104 3.82976-8.54016 8.54016-8.54016s8.54016 3.82976 8.54016 8.54016v30.86336c10.89536-1.00352 21.6064-2.17088 32.09216-3.50208v-6.32832c0-4.7104 3.82976-8.54016 8.54016-8.54016s8.54016 3.82976 8.54016 8.54016v4.01408c48.78336-7.04512 92.4672-17.38752 128.512-30.26944 34.73408-12.3904 57.7536-45.44512 57.7536-82.3296V288.9728c-0.38912-0.16384-0.45056-0.2048-0.8192-0.4096z m-626.7904 117.71904c0 4.7104-3.82976 8.54016-8.54016 8.54016s-8.54016-3.82976-8.54016-8.54016v-48.47616c0-4.7104 3.82976-8.54016 8.54016-8.54016s8.54016 3.82976 8.54016 8.54016v48.47616z m575.85664 15.93344c0 4.7104-3.82976 8.54016-8.54016 8.54016s-8.54016-3.82976-8.54016-8.54016v-45.4656c0-4.7104 3.82976-8.54016 8.54016-8.54016s8.54016 3.82976 8.54016 8.54016v45.4656z" fill="#EBC3A9" p-id="1550"></path><path d="M848.50688 261.24288c-66.10944 39.85408-191.56992 66.78528-335.5648 66.78528-143.89248 0-269.29152-26.89024-335.44192-66.70336-1.45408 0.8192-1.78176 1.00352-3.23584 1.8432v69.98016c0 36.67968 22.81472 69.59104 57.28256 82.14528 70.30784 25.6 170.35264 41.59488 281.3952 41.59488 109.60896 0 208.4864-15.60576 278.60992-40.63232 34.73408-12.3904 57.7536-45.44512 57.7536-82.3296v-72.21248c-0.36864-0.2048-0.43008-0.24576-0.79872-0.47104z" fill="#F8E3CE" p-id="1551"></path><path d="M605.32736 440.2176c-4.7104 0-8.54016 3.82976-8.54016 8.54016v32.27648c5.7344-0.43008 11.42784-0.90112 17.08032-1.41312v-30.86336c0-4.7104-3.82976-8.54016-8.54016-8.54016zM654.49984 461.25056c-4.7104 0-8.54016 3.82976-8.54016 8.54016v6.32832c5.75488-0.7168 11.44832-1.49504 17.08032-2.31424v-4.01408c0-4.7104-3.82976-8.54016-8.54016-8.54016zM789.05344 368.20992c-4.7104 0-8.54016 3.82976-8.54016 8.54016v45.4656c0 4.7104 3.82976 8.54016 8.54016 8.54016s8.54016-3.82976 8.54016-8.54016v-45.4656c-0.02048-4.7104-3.82976-8.54016-8.54016-8.54016zM288.50176 437.67808c-4.7104 0-8.54016 3.82976-8.54016 8.54016v11.22304c5.57056 1.4336 11.264 2.82624 17.08032 4.17792v-15.38048c0-4.73088-3.82976-8.56064-8.54016-8.56064zM213.17632 349.26592c-4.7104 0-8.54016 3.82976-8.54016 8.54016v48.47616c0 4.7104 3.82976 8.54016 8.54016 8.54016s8.54016-3.82976 8.54016-8.54016v-48.47616c0-4.7104-3.82976-8.54016-8.54016-8.54016z" fill="#BB8972" p-id="1552"></path><path d="M511.77472 120.60672c191.3856 0 346.54208 57.11872 346.54208 127.5904s-155.15648 127.5904-346.54208 127.5904-346.54208-57.11872-346.54208-127.5904 155.15648-127.5904 346.54208-127.5904m0-18.20672c-94.65856 0-183.9104 13.66016-251.33056 38.5024-73.13408 26.9312-113.41824 65.04448-113.41824 107.3152 0 42.27072 40.28416 80.384 113.41824 107.3152 67.42016 24.82176 156.672 38.5024 251.33056 38.5024s183.9104-13.68064 251.33056-38.5024c73.13408-26.9312 113.41824-65.04448 113.41824-107.3152 0-42.27072-40.28416-80.384-113.41824-107.3152C695.7056 116.06016 606.45376 102.4 511.77472 102.4z" p-id="1553"></path><path d="M858.33728 248.19712c0-60.88704-115.83488-111.75936-270.7456-124.49792-0.04096 0.06144-0.06144 0.12288-0.1024 0.18432l-19.27168 28.52864a9.111552 9.111552 0 0 1-7.55712 4.01408c-1.76128 0-3.52256-0.512-5.07904-1.55648a9.117696 9.117696 0 0 1-2.4576-12.63616l13.5168-20.02944c-17.87904-1.04448-36.18816-1.61792-54.86592-1.61792-123.04384 0-231.05536 23.63392-292.53632 59.22816l37.888 31.41632a9.119744 9.119744 0 0 1 1.20832 12.82048 9.109504 9.109504 0 0 1-7.02464 3.29728c-2.048 0-4.11648-0.67584-5.79584-2.08896l-40.3456-33.46432c-0.65536-0.55296-1.18784-1.18784-1.65888-1.88416-10.0352 7.18848-18.26816 14.7456-24.4736 22.6304l63.63136 55.45984a9.105408 9.105408 0 0 1 0.88064 12.84096 9.05216 9.05216 0 0 1-6.8608 3.11296c-2.12992 0-4.25984-0.73728-5.98016-2.23232l-61.25568-53.41184c-2.74432 6.47168-4.1984 13.08672-4.1984 19.84512 0 42.76224 57.22112 80.60928 144.93696 103.75168 0.34816-0.73728 0.77824-1.45408 1.35168-2.10944l24.96512-28.34432a9.127936 9.127936 0 0 1 12.86144-0.8192 9.127936 9.127936 0 0 1 0.8192 12.86144L329.728 356.72064c52.92032 12.06272 115.28192 19.02592 182.08768 19.02592 68.66944 0 132.608-7.39328 186.4704-20.0704l-7.24992-7.49568c-3.50208-3.60448-3.39968-9.37984 0.2048-12.88192s9.37984-3.39968 12.88192 0.2048l8.11008 8.37632c2.048 2.10944 2.82624 4.97664 2.41664 7.68 12.00128-3.19488 23.42912-6.67648 34.22208-10.40384l-28.71296-34.95936c-3.19488-3.8912-2.62144-9.6256 1.24928-12.82048 3.8912-3.19488 9.6256-2.62144 12.82048 1.24928l32.70656 39.8336c56.70912-22.6304 91.40224-52.96128 91.40224-86.26176z m-270.04928 9.1136H548.0448c-5.0176 0-9.1136-4.07552-9.1136-9.1136 0-5.0176 4.07552-9.1136 9.1136-9.1136h40.2432c5.0176 0 9.1136 4.07552 9.1136 9.1136-0.02048 5.03808-4.096 9.1136-9.1136 9.1136z m0-40.28416h-27.60704c-5.0176 0-9.1136-4.07552-9.1136-9.1136s4.07552-9.1136 9.1136-9.1136h27.60704c5.0176 0 9.1136 4.07552 9.1136 9.1136s-4.096 9.1136-9.1136 9.1136z" fill="#EBC4A5" p-id="1554"></path><path d="M195.74784 248.19712a316.25216 102.07232 0 1 0 632.50432 0 316.25216 102.07232 0 1 0-632.50432 0Z" fill="#D3A687" p-id="1555"></path><path d="M588.288 239.104H548.0448c-5.0176 0-9.1136 4.07552-9.1136 9.1136 0 5.0176 4.07552 9.1136 9.1136 9.1136h40.2432c5.0176 0 9.1136-4.07552 9.1136-9.1136-0.02048-5.03808-4.096-9.1136-9.1136-9.1136zM588.288 198.81984h-27.60704c-5.0176 0-9.1136 4.07552-9.1136 9.1136s4.07552 9.1136 9.1136 9.1136h27.60704c5.0176 0 9.1136-4.07552 9.1136-9.1136s-4.096-9.1136-9.1136-9.1136zM245.51424 225.28a9.0112 9.0112 0 0 0 5.79584 2.08896 9.101312 9.101312 0 0 0 5.81632-16.11776l-37.888-31.41632c-5.65248 3.2768-10.89536 6.63552-15.74912 10.09664 0.47104 0.67584 1.00352 1.3312 1.65888 1.88416L245.51424 225.28zM236.66688 284.01664c2.53952 0 5.05856-1.06496 6.8608-3.11296a9.105408 9.105408 0 0 0-0.88064-12.84096L179.03616 212.5824c-4.05504 5.14048-7.31136 10.40384-9.60512 15.79008l61.25568 53.41184c1.72032 1.49504 3.85024 2.23232 5.98016 2.23232zM555.60192 154.86976c1.55648 1.06496 3.33824 1.55648 5.07904 1.55648 2.92864 0 5.79584-1.41312 7.55712-4.01408l19.27168-28.52864c0.04096-0.06144 0.06144-0.12288 0.1024-0.18432-6.90176-0.57344-13.88544-1.08544-20.93056-1.49504l-13.5168 20.02944a9.07264 9.07264 0 0 0 2.43712 12.63616zM712.192 343.9616l-8.11008-8.37632a9.117696 9.117696 0 0 0-12.88192-0.2048 9.117696 9.117696 0 0 0-0.2048 12.88192l7.24992 7.49568c5.57056-1.31072 11.01824-2.68288 16.36352-4.096 0.4096-2.74432-0.36864-5.59104-2.41664-7.70048zM721.38752 293.45792a9.10336 9.10336 0 0 0-1.24928 12.82048l28.71296 34.95936c6.22592-2.1504 12.288-4.38272 18.06336-6.69696L734.208 294.7072a9.121792 9.121792 0 0 0-12.82048-1.24928zM349.34784 320.69632a9.129984 9.129984 0 0 0-12.86144 0.8192l-24.96512 28.34432c-0.57344 0.65536-0.98304 1.37216-1.35168 2.10944 6.36928 1.67936 12.86144 3.29728 19.51744 4.8128l20.45952-23.22432a9.107456 9.107456 0 0 0-0.79872-12.86144z" fill="#BB8972" p-id="1556"></path><path d="M227.18464 536.08448h-0.26624l-27.60704-0.86016a8.45824 8.45824 0 0 1-8.192-8.704c0.14336-4.66944 4.096-8.47872 8.704-8.192l27.60704 0.86016a8.45824 8.45824 0 0 1 8.192 8.704c-0.12288 4.56704-3.8912 8.192-8.43776 8.192zM822.8864 598.17984h-0.34816l-28.18048-1.14688a8.419328 8.419328 0 0 1-8.0896-8.78592 8.454144 8.454144 0 0 1 8.43776-8.11008h0.34816l28.18048 1.14688c4.66944 0.18432 8.2944 4.11648 8.0896 8.78592a8.42752 8.42752 0 0 1-8.43776 8.11008zM839.00416 633.26208c-0.18432 0-0.36864 0-0.55296-0.02048l-67.4816-4.4032a8.45824 8.45824 0 0 1-7.8848-8.99072c0.3072-4.66944 4.4032-8.21248 8.99072-7.8848l67.4816 4.4032c4.64896 0.3072 8.192 4.32128 7.8848 8.99072a8.491008 8.491008 0 0 1-8.43776 7.90528z" fill="#BB8972" p-id="1557"></path><path d="M865.87392 464.384l-37.62176 19.80416M548.0448 578.048H518.144a8.460288 8.460288 0 0 1 0-16.91648h29.9008c4.66944 0 8.45824 3.7888 8.45824 8.45824a8.474624 8.474624 0 0 1-8.45824 8.45824zM562.42176 628.65408h-59.8016a8.460288 8.460288 0 0 1 0-16.91648h59.8016c4.66944 0 8.45824 3.7888 8.45824 8.45824-0.02048 4.66944-3.80928 8.45824-8.45824 8.45824zM422.97344 545.56672H389.3248a8.460288 8.460288 0 0 1 0-16.91648h33.64864a8.460288 8.460288 0 0 1 0 16.91648zM389.3248 578.048h-18.10432a8.460288 8.460288 0 0 1 0-16.91648h18.10432a8.460288 8.460288 0 0 1 0 16.91648z" fill="#E19676" p-id="1558"></path><path d="M264.23296 782.82752c-2.64192 0-5.26336-1.2288-6.90176-3.56352a8.47872 8.47872 0 0 1 1.98656-11.79648l25.7024-18.24768a8.47872 8.47872 0 0 1 11.79648 1.98656 8.47872 8.47872 0 0 1-1.98656 11.79648l-25.7024 18.24768c-1.49504 1.08544-3.21536 1.57696-4.89472 1.57696z" fill="#BB8972" p-id="1559"></path></svg>