<?xml version="1.0" standalone="no"?><!DOCTYPE svg PUBLIC "-//W3C//DTD SVG 1.1//EN" "http://www.w3.org/Graphics/SVG/1.1/DTD/svg11.dtd"><svg t="1650363588118" class="icon" viewBox="0 0 1024 1024" version="1.1" xmlns="http://www.w3.org/2000/svg" p-id="20242" xmlns:xlink="http://www.w3.org/1999/xlink" width="200" height="200"><defs><style type="text/css">@font-face { font-family: feedback-iconfont; src: url("//at.alicdn.com/t/font_1031158_u69w8yhxdu.woff2?t=1630033759944") format("woff2"), url("//at.alicdn.com/t/font_1031158_u69w8yhxdu.woff?t=1630033759944") format("woff"), url("//at.alicdn.com/t/font_1031158_u69w8yhxdu.ttf?t=1630033759944") format("truetype"); }
</style></defs><path d="M764.22144 220.45696c-37.08928 0-71.44448 11.53024-99.81952 31.11936-28.52864-65.792-93.99296-111.85152-170.27072-111.85152-92.52864 0-169.02144 67.79904-183.05024 156.38528-14.9504-5.888-31.19104-9.23648-48.24064-9.23648-72.78592 0-131.77856 59.00288-131.77856 131.77856 0 59.20768 39.04512 109.28128 92.78464 125.91104v15.28832h475.4944c20.09088 7.9872 41.94304 12.50304 64.88064 12.50304 97.1776 0 175.95392-78.77632 175.95392-175.95392s-78.77632-175.94368-175.95392-175.94368z" fill="#F5CFC4" p-id="20243"></path><path d="M764.22144 588.32896c-23.17312 0-45.98784-4.20864-67.87072-12.50304H207.88224v-19.968c-55.9616-22.30272-92.78464-76.032-92.78464-137.18528 0-81.46944 66.28352-147.75296 147.75296-147.75296 12.22656 0 24.34048 1.52576 36.17792 4.54656 22.40512-88.92416 101.7344-151.7056 195.11296-151.7056 74.17856 0 141.73184 40.63232 176.8448 104.92928 28.45696-15.88224 60.35456-24.20736 93.2352-24.20736 105.8304 0 191.92832 86.09792 191.92832 191.91808s-86.09792 191.92832-191.92832 191.92832z m-524.40064-44.4416h462.58176l2.84672 1.13664c18.9952 7.54688 38.84032 11.37664 58.9824 11.37664 88.2176 0 159.98976-71.76192 159.98976-159.98976 0-88.20736-71.77216-159.97952-159.98976-159.97952-32.55296 0-63.92832 9.7792-90.74688 28.29312l-15.98464 11.03872-7.7312-17.82784c-26.9312-62.1056-88.0128-102.22592-155.62752-102.22592-83.8144 0-154.1632 60.1088-167.28064 142.91968l-3.11296 19.65056-18.51392-7.29088c-13.68064-5.38624-27.94496-8.12032-42.38336-8.12032-63.85664 0-115.8144 51.95776-115.8144 115.8144 0 51.08736 32.768 95.55968 81.54112 110.65344l11.25376 3.4816v11.06944z" fill="#6F6973" p-id="20244"></path><path d="M706.57024 905.63584H252.672l-53.22752-360.38656h672.3584l-53.22752 360.38656" fill="#F9C885" p-id="20245"></path><path d="M818.59584 921.6c-0.77824 0-1.56672-0.0512-2.3552-0.16384-8.72448-1.29024-14.75584-9.41056-13.4656-18.13504l50.52416-342.08768H217.93792l48.51712 328.448h440.1152c8.81664 0 15.96416 7.14752 15.96416 15.96416s-7.14752 15.96416-15.96416 15.96416H238.87872L180.9408 529.27488h709.36576l-55.93088 378.68544c-1.1776 7.94624-7.99744 13.63968-15.77984 13.63968z" fill="#6F6973" p-id="20246"></path><path d="M352.7168 847.63648c-7.71072 0-14.49984-5.60128-15.74912-13.4656l-44.36992-279.69536c-1.3824-8.71424 4.5568-16.896 13.27104-18.2784 8.704-1.3824 16.88576 4.56704 18.26816 13.2608l44.36992 279.69536c1.3824 8.71424-4.5568 16.896-13.27104 18.2784-0.84992 0.14336-1.6896 0.2048-2.51904 0.2048zM714.6496 847.63648c-0.82944 0-1.66912-0.06144-2.51904-0.19456-8.71424-1.3824-14.65344-9.56416-13.27104-18.2784l44.38016-279.69536c1.3824-8.704 9.5744-14.6432 18.26816-13.2608 8.71424 1.3824 14.65344 9.56416 13.27104 18.2784l-44.38016 279.69536c-1.23904 7.85408-8.02816 13.45536-15.74912 13.45536zM465.9712 840.91904c-8.81664 0-15.96416-7.14752-15.96416-15.96416V551.97696c0-8.81664 7.14752-15.96416 15.96416-15.96416s15.96416 7.14752 15.96416 15.96416v272.97792c0.01024 8.8064-7.13728 15.96416-15.96416 15.96416zM601.3952 840.91904c-8.81664 0-15.96416-7.14752-15.96416-15.96416V551.97696c0-8.81664 7.14752-15.96416 15.96416-15.96416s15.96416 7.14752 15.96416 15.96416v272.97792c0.01024 8.8064-7.13728 15.96416-15.96416 15.96416z" fill="#6F6973" p-id="20247"></path><path d="M309.7088 263.26016m-92.78464 0a92.78464 92.78464 0 1 0 185.56928 0 92.78464 92.78464 0 1 0-185.56928 0Z" fill="#FFB9A3" p-id="20248"></path><path d="M309.7088 372.0192c-59.96544 0-108.75904-48.7936-108.75904-108.75904s48.7936-108.75904 108.75904-108.75904 108.75904 48.7936 108.75904 108.75904S369.67424 372.0192 309.7088 372.0192z m0-185.57952c-42.36288 0-76.82048 34.4576-76.82048 76.82048s34.4576 76.82048 76.82048 76.82048 76.82048-34.4576 76.82048-76.82048-34.46784-76.82048-76.82048-76.82048z" fill="#6F6973" p-id="20249"></path><path d="M283.50464 253.27616c-5.376 0.01024-10.61888-2.70336-13.62944-7.6288C199.39328 130.6624 89.2416 134.144 84.55168 134.38976c-8.6528 0.38912-16.26112-6.41024-16.68096-15.19616-0.41984-8.78592 6.33856-16.26112 15.12448-16.70144 5.43744-0.29696 133.4272-5.16096 214.10816 126.47424 4.608 7.51616 2.2528 17.34656-5.2736 21.95456a15.85152 15.85152 0 0 1-8.32512 2.3552z" fill="#6F6973" p-id="20250"></path><path d="M241.78688 512.79872c-3.5328 0-7.08608-1.16736-10.04544-3.56352-35.8912-29.11232-53.00224-59.2384-50.85184-89.53856 2.95936-41.9328 42.2912-65.97632 43.96032-66.97984 7.54688-4.53632 17.36704-2.07872 21.90336 5.4784 4.52608 7.54688 2.0992 17.31584-5.41696 21.87264-0.59392 0.36864-26.94144 16.92672-28.60032 42.06592-1.26976 19.2512 11.88864 40.21248 39.12704 62.30016 6.85056 5.56032 7.90528 15.616 2.34496 22.46656a15.985664 15.985664 0 0 1-12.42112 5.89824zM605.88032 297.02144c-5.57056 0-10.97728-2.9184-13.90592-8.09984-16.82432-29.71648-37.59104-47.38048-61.71648-52.50048-39.34208-8.35584-75.88864 18.20672-76.25728 18.47296-7.10656 5.23264-17.09056 3.7376-22.33344-3.33824-5.24288-7.08608-3.74784-17.09056 3.33824-22.33344 1.95584-1.45408 48.61952-35.36896 101.888-24.03328 33.46432 7.10656 61.3376 29.98272 82.87232 68.00384 4.34176 7.68 1.64864 17.41824-6.02112 21.76a16.130048 16.130048 0 0 1-7.86432 2.06848z" fill="#FFFFFF" p-id="20251"></path></svg>