<?xml version="1.0" standalone="no"?><!DOCTYPE svg PUBLIC "-//W3C//DTD SVG 1.1//EN" "http://www.w3.org/Graphics/SVG/1.1/DTD/svg11.dtd"><svg t="1650434141795" class="icon" viewBox="0 0 1024 1024" version="1.1" xmlns="http://www.w3.org/2000/svg" p-id="5939" xmlns:xlink="http://www.w3.org/1999/xlink" width="200" height="200"><defs><style type="text/css">@font-face { font-family: feedback-iconfont; src: url("//at.alicdn.com/t/font_1031158_u69w8yhxdu.woff2?t=1630033759944") format("woff2"), url("//at.alicdn.com/t/font_1031158_u69w8yhxdu.woff?t=1630033759944") format("woff"), url("//at.alicdn.com/t/font_1031158_u69w8yhxdu.ttf?t=1630033759944") format("truetype"); }
</style></defs><path d="M728.064 899.754667H374.784c-74.069333 0-134.144-60.074667-134.144-134.144V412.672c0-74.069333 60.074667-134.144 134.144-134.144h352.938667c74.069333 0 134.144 60.074667 134.144 134.144v352.938667c0.341333 74.069333-59.733333 134.144-133.802667 134.144z" fill="#FBDF83" p-id="5940" data-spm-anchor-id="a313x.7781069.0.i4" class=""></path><path d="M661.845333 880.64H308.906667C223.232 880.64 153.6 811.008 153.6 725.333333V372.394667C153.6 286.72 223.232 217.088 308.906667 217.088h352.938666c85.674667 0 155.306667 69.632 155.306667 155.306667v352.938666c0 85.674667-69.632 155.306667-155.306667 155.306667zM308.906667 259.072c-62.464 0-113.322667 50.858667-113.322667 113.322667v352.938666c0 62.464 50.858667 113.322667 113.322667 113.322667h352.938666c62.464 0 113.322667-50.858667 113.322667-113.322667V372.394667c0-62.464-50.858667-113.322667-113.322667-113.322667H308.906667z" p-id="5941" data-spm-anchor-id="a313x.7781069.0.i0" class="selected" fill="#707070"></path><path d="M256.341333 388.096h188.757334v46.762667H256.341333zM532.138667 388.096h188.757333v46.762667h-188.757333zM256.341333 669.354667h188.757334v46.762666H256.341333z" p-id="5942" data-spm-anchor-id="a313x.7781069.0.i2" class="selected" fill="#707070"></path><path d="M327.338667 317.098667h46.762666v188.757333H327.338667zM543.361707 742.939307l133.471573-133.46816 33.06496 33.06496-133.46816 133.471573z" p-id="5943" data-spm-anchor-id="a313x.7781069.0.i3" class="selected" fill="#707070"></path><path d="M543.361707 642.536107l33.068373-33.06496 133.46816 133.46816-33.06496 33.068373z" p-id="5944" data-spm-anchor-id="a313x.7781069.0.i1" class="selected" fill="#707070"></path><path d="M350.890667 632.832m-23.210667 0a23.210667 23.210667 0 1 0 46.421333 0 23.210667 23.210667 0 1 0-46.421333 0Z" p-id="5945" data-spm-anchor-id="a313x.7781069.0.i5" class="selected" fill="#707070"></path><path d="M350.890667 752.64m-23.210667 0a23.210667 23.210667 0 1 0 46.421333 0 23.210667 23.210667 0 1 0-46.421333 0Z" p-id="5946" data-spm-anchor-id="a313x.7781069.0.i6" class="selected" fill="#707070"></path></svg>