<?xml version="1.0" standalone="no"?><!DOCTYPE svg PUBLIC "-//W3C//DTD SVG 1.1//EN" "http://www.w3.org/Graphics/SVG/1.1/DTD/svg11.dtd"><svg t="1650418937283" class="icon" viewBox="0 0 1024 1024" version="1.1" xmlns="http://www.w3.org/2000/svg" p-id="35364" xmlns:xlink="http://www.w3.org/1999/xlink" width="200" height="200"><defs><style type="text/css">@font-face { font-family: feedback-iconfont; src: url("//at.alicdn.com/t/font_1031158_u69w8yhxdu.woff2?t=1630033759944") format("woff2"), url("//at.alicdn.com/t/font_1031158_u69w8yhxdu.woff?t=1630033759944") format("woff"), url("//at.alicdn.com/t/font_1031158_u69w8yhxdu.ttf?t=1630033759944") format("truetype"); }
</style></defs><path d="M256.682667 446.122667V532.48c0 139.605333 112.981333 252.586667 252.586666 252.586667s252.586667-112.981333 252.586667-252.586667v-86.357333h-505.173333z" fill="#FEA789" p-id="35365"></path><path d="M475.818667 808.96c-177.834667 0-322.901333-144.725333-322.901334-322.901333v-125.952H798.72v125.952c0 178.176-145.066667 322.901333-322.901333 322.901333zM200.704 408.234667v78.165333c0 151.552 123.221333 274.773333 274.773333 274.773333s274.773333-123.221333 274.773334-274.773333v-78.165333h-549.546667z" p-id="35366" data-spm-anchor-id="a313x.7781069.0.i8" class="selected" fill="#707070"></path><path d="M803.498667 573.781333h-51.2v-213.333333h51.2c58.709333 0 106.837333 47.786667 106.837333 106.837333s-48.128 106.496-106.837333 106.496z m-6.485334-44.714666h6.485334c34.133333 0 62.122667-27.989333 62.122666-62.122667s-27.989333-62.122667-62.122666-62.122667h-6.485334V529.066667zM152.917333 764.928h644.096v44.714667H152.917333zM348.501333 340.309333c-4.096 0-8.192-0.341333-12.629333-1.365333-11.946667-2.730667-19.797333-14.336-17.066667-26.624 2.730667-11.946667 14.677333-19.797333 26.624-17.066667 6.826667 1.365333 8.533333-1.365333 8.874667-2.730666 2.389333-4.437333 1.024-12.970667-7.509333-21.162667-22.869333-21.504-25.258667-41.642667-23.210667-54.613333 4.437333-29.354667 33.792-44.032 37.205333-45.738667 11.264-5.461333 24.576-0.682667 29.696 10.581333 5.461333 10.922667 0.682667 24.234667-10.24 29.696-4.778667 2.389333-11.946667 8.533333-12.629333 12.629334-0.341333 2.389333 2.048 7.850667 9.557333 15.018666 22.186667 20.821333 28.672 50.858667 16.384 74.410667-8.874667 17.066667-25.941333 26.965333-45.056 26.965333zM598.357333 340.309333c-4.096 0-8.192-0.341333-12.629333-1.365333-11.946667-2.730667-19.797333-14.336-17.066667-26.624 2.730667-11.946667 14.677333-19.797333 26.624-17.066667 6.826667 1.365333 8.533333-1.365333 8.874667-2.730666 2.389333-4.437333 1.024-12.970667-7.509333-21.162667-22.869333-21.504-25.258667-41.642667-23.210667-54.613333 4.437333-29.354667 33.792-44.032 37.205333-45.738667 11.264-5.461333 24.576-0.682667 29.696 10.581333 5.461333 10.922667 0.682667 24.234667-10.24 29.696-4.778667 2.389333-11.946667 8.533333-12.629333 12.629334-0.341333 2.389333 2.048 7.850667 9.557333 15.018666 22.186667 20.821333 28.672 50.858667 16.384 74.410667-8.533333 17.066667-25.6 26.965333-45.056 26.965333zM470.357333 340.309333c-4.778667 0-9.898667-0.682667-15.018666-1.706666-11.946667-2.730667-19.797333-14.336-17.066667-26.624 2.730667-11.946667 14.677333-19.797333 26.624-17.066667 6.826667 1.365333 15.701333 1.365333 20.138667-7.168 4.437333-8.874667 2.730667-23.552-11.264-36.864-22.528-21.162667-32.085333-43.690667-28.672-66.218667 5.461333-35.157333 41.301333-53.589333 45.397333-55.296 11.264-5.461333 24.576-0.682667 29.696 10.581334 5.461333 10.922667 0.682667 24.234667-10.24 29.696-6.144 3.072-19.456 12.629333-20.821333 22.186666-1.365333 9.557333 8.874667 20.821333 15.36 26.624 26.965333 25.6 35.157333 61.781333 20.138666 90.112-11.264 20.138667-31.402667 31.744-54.272 31.744zM568.32 672.085333c-8.192 0-16.042667-4.437333-19.797333-12.288-5.461333-10.922667-1.024-24.576 9.898666-30.037333 74.410667-37.205333 56.32-158.037333 56.32-159.402667-2.048-12.288 6.485333-23.552 18.773334-25.6 12.288-1.706667 23.552 6.485333 25.6 18.773334 1.024 6.144 22.869333 154.282667-80.213334 206.165333-3.754667 1.706667-7.168 2.389333-10.581333 2.389333z" p-id="35367" data-spm-anchor-id="a313x.7781069.0.i9" class="selected" fill="#707070"></path></svg>