<?xml version="1.0" standalone="no"?><!DOCTYPE svg PUBLIC "-//W3C//DTD SVG 1.1//EN" "http://www.w3.org/Graphics/SVG/1.1/DTD/svg11.dtd"><svg t="1650419040465" class="icon" viewBox="0 0 1024 1024" version="1.1" xmlns="http://www.w3.org/2000/svg" p-id="35835" xmlns:xlink="http://www.w3.org/1999/xlink" width="200" height="200"><defs><style type="text/css">@font-face { font-family: feedback-iconfont; src: url("//at.alicdn.com/t/font_1031158_u69w8yhxdu.woff2?t=1630033759944") format("woff2"), url("//at.alicdn.com/t/font_1031158_u69w8yhxdu.woff?t=1630033759944") format("woff"), url("//at.alicdn.com/t/font_1031158_u69w8yhxdu.ttf?t=1630033759944") format("truetype"); }
</style></defs><path d="M229.717333 652.970667s128.682667-158.378667 269.994667-70.314667 184.661333-45.397333 360.789333-162.816v423.253333H229.717333v-190.122666z" fill="#A5E1F3" p-id="35836"></path><path d="M465.237333 755.712h109.226667v47.786667h-109.226667zM306.176 755.712h111.274667v47.786667H306.176zM622.250667 755.712h113.664v47.786667h-113.664zM139.264 755.712h119.125333v47.786667H139.264zM783.701333 755.712h76.8v47.786667h-76.8zM258.389333 565.930667h47.786667v189.781333h-47.786667zM258.389333 755.712h47.786667v47.786667h-47.786667zM417.450667 463.189333h47.786666v292.522667h-47.786666z" p-id="35837" data-spm-anchor-id="a313x.7781069.0.i13" class="selected" fill="#707070"></path><path d="M417.450667 755.712h47.786666v47.786667h-47.786666zM574.464 600.405333h47.786667v155.306667h-47.786667zM574.464 755.712h47.786667v47.786667h-47.786667zM735.914667 370.688h47.786666v385.024h-47.786666zM735.914667 755.712h47.786666v47.786667h-47.786666zM152.576 551.253333L125.610667 512l230.741333-158.72 212.650667 36.181333 278.186666-186.026666 26.624 39.594666-293.888 196.949334-212.650666-36.181334z" p-id="35838" data-spm-anchor-id="a313x.7781069.0.i12" class="selected" fill="#707070"></path><path d="M773.864107 206.544213l12.127573-46.22336 122.825387 32.22528-12.130987 46.22336z" p-id="35839" data-spm-anchor-id="a313x.7781069.0.i15" class="selected" fill="#707070"></path><path d="M839.168 309.193387l22.234453-125.006507 47.045974 8.36608-22.234454 125.00992z" p-id="35840" data-spm-anchor-id="a313x.7781069.0.i14" class="selected" fill="#707070"></path></svg>