<?xml version="1.0" standalone="no"?>
<!DOCTYPE svg PUBLIC "-//W3C//DTD SVG 1.1//EN" "http://www.w3.org/Graphics/SVG/1.1/DTD/svg11.dtd"><svg t="1650418401318"
  class="icon" viewBox="0 0 1024 1024" version="1.1" xmlns="http://www.w3.org/2000/svg" p-id="25429"
  xmlns:xlink="http://www.w3.org/1999/xlink" width="200" height="200">
  <defs>
    <style type="text/css">
      @font-face {
        font-family: feedback-iconfont;
        src: url("//at.alicdn.com/t/font_1031158_u69w8yhxdu.woff2?t=1630033759944") format("woff2"), url("//at.alicdn.com/t/font_1031158_u69w8yhxdu.woff?t=1630033759944") format("woff"), url("//at.alicdn.com/t/font_1031158_u69w8yhxdu.ttf?t=1630033759944") format("truetype");
      }
    </style>
  </defs>
  <path
    d="M740.39296 120.832h-492.544v26.76736c0 5.09952-4.11648 9.216-9.216 9.216s-9.216-4.11648-9.216-9.216V120.832H192.8192c-1.57696 0-2.8672 1.29024-2.8672 2.8672v133.44768h17.1008c5.09952 0 9.216 4.11648 9.216 9.216s-4.11648 9.216-9.216 9.216h-17.1008v520.51968h553.28768V123.6992c0.02048-1.57696-1.26976-2.8672-2.84672-2.8672z"
    fill="#FFEBD2" p-id="25430"></path>
  <path
    d="M238.63296 156.81536c5.09952 0 9.216-4.11648 9.216-9.216V120.832h-18.432v26.76736a9.216 9.216 0 0 0 9.216 9.216zM189.952 257.14688c-5.09952 0-9.216 4.11648-9.216 9.216s4.11648 9.216 9.216 9.216v-18.432zM216.28928 266.36288c0-5.09952-4.11648-9.216-9.216-9.216h-17.1008v18.432h17.1008c5.07904 0 9.216-4.13696 9.216-9.216z"
    fill="#EACDAD" p-id="25431"></path>
  <path
    d="M740.39296 120.832c1.57696 0 2.8672 1.29024 2.8672 2.8672v672.39936H189.952V123.6992c0-1.57696 1.29024-2.8672 2.8672-2.8672h547.57376m0-18.432H192.8192c-11.73504 0-21.2992 9.56416-21.2992 21.2992v690.83136h590.15168V123.6992c0.02048-11.73504-9.54368-21.2992-21.27872-21.2992z"
    p-id="25432"></path>
  <path
    d="M821.98528 165.0688h-371.9168l0.2048 7.90528a9.220096 9.220096 0 0 1-8.97024 9.46176h-0.24576c-4.97664 0-9.07264-3.97312-9.216-8.97024l-0.22528-8.3968h-157.20448c-1.57696 0-2.8672 1.29024-2.8672 2.8672v672.39936h553.28768V167.936c0.02048-1.57696-1.26976-2.8672-2.84672-2.8672z"
    fill="#FFEBD2" p-id="25433"></path>
  <path
    d="M441.05728 182.43584h0.24576a9.220096 9.220096 0 0 0 8.97024-9.46176l-0.2048-7.90528h-18.432l0.22528 8.3968a9.201664 9.201664 0 0 0 9.19552 8.97024z"
    fill="#EACDAD" p-id="25434"></path>
  <path
    d="M821.98528 165.0688c1.57696 0 2.8672 1.29024 2.8672 2.8672v672.39936H271.54432V167.936c0-1.57696 1.29024-2.8672 2.8672-2.8672h547.57376m0-18.432H274.41152c-11.73504 0-21.2992 9.56416-21.2992 21.2992v690.83136h590.15168V167.936c0.02048-11.73504-9.54368-21.2992-21.27872-21.2992z"
    p-id="25435"></path>
  <path
    d="M785.77664 204.86144c1.57696 0 2.8672 1.29024 2.8672 2.8672v672.39936H235.35616V294.2976l22.97856-20.60288c1.26976-1.14688 1.47456-3.05152 0.49152-4.42368l-23.47008-32.93184v-28.61056c0-1.57696 1.29024-2.8672 2.8672-2.8672h547.55328m0-18.432H238.22336c-11.73504 0-21.2992 9.56416-21.2992 21.2992v34.5088l3.42016 4.79232 15.64672 21.93408-12.94336 11.61216-6.12352 5.48864v612.49536h590.15168V207.72864c0-11.75552-9.54368-21.2992-21.2992-21.2992z"
    p-id="25436"></path>
  <path
    d="M760.97536 832.53248H263.02464V305.29536l20.6848-18.55488c1.14688-1.024 1.3312-2.74432 0.45056-3.9936l-21.11488-29.63456v-25.74336c0-1.4336 1.14688-2.58048 2.58048-2.58048h492.81024c1.4336 0 2.58048 1.14688 2.58048 2.58048v605.16352z"
    fill="#FFEBD2" p-id="25437"></path>
  <path
    d="M751.75936 243.07712c0-5.09952 4.11648-9.216 9.216-9.216h27.66848v-26.13248c0-1.57696-1.29024-2.8672-2.8672-2.8672h-188.80512v19.94752a9.216 9.216 0 0 1-18.432 0v-19.94752h-28.42624v58.30656a9.216 9.216 0 0 1-18.432 0v-58.30656H238.22336c-1.57696 0-2.8672 1.29024-2.8672 2.8672v28.61056l23.47008 32.93184c0.98304 1.39264 0.77824 3.29728-0.49152 4.42368l-22.97856 20.60288v585.8304h553.28768V252.29312h-27.66848c-5.07904 0-9.216-4.13696-9.216-9.216z"
    fill="#FFFFFD" p-id="25438"></path>
  <path
    d="M540.89728 272.36352c5.09952 0 9.216-4.11648 9.216-9.216v-58.30656h-18.432v58.30656c0 5.09952 4.11648 9.216 9.216 9.216zM587.75552 234.00448c5.09952 0 9.216-4.11648 9.216-9.216v-19.94752h-18.432v19.94752c0 5.09952 4.11648 9.216 9.216 9.216zM760.97536 233.86112c-5.09952 0-9.216 4.11648-9.216 9.216s4.11648 9.216 9.216 9.216h27.66848v-18.432h-27.66848z"
    fill="#EACDAD" p-id="25439"></path>
  <path
    d="M701.76768 409.4976l-28.44672 265.8304c-3.87072 36.22912-34.44736 63.6928-70.88128 63.6928h-180.89984c-36.43392 0-67.01056-27.46368-70.88128-63.6928l-28.44672-265.8304c-5.67296-52.9408-50.33984-93.0816-103.56736-93.0816H166.72768c-4.096 0-7.3728 3.3792-7.24992 7.4752l17.14176 545.95584c0.57344 18.57536 15.81056 33.32096 34.38592 33.32096h601.96864c18.57536 0 33.792-14.7456 34.38592-33.32096l17.14176-545.95584c0.12288-4.096-3.15392-7.4752-7.24992-7.4752h-51.93728c-53.20704 0-97.87392 40.1408-103.54688 93.0816z"
    fill="#D54195" p-id="25440"></path>
  <path
    d="M857.27232 316.416c4.096 0 7.3728 3.3792 7.24992 7.4752l-17.14176 545.95584c-0.57344 18.57536-15.81056 33.32096-34.38592 33.32096H211.02592c-18.57536 0-33.792-14.7456-34.38592-33.32096l-17.14176-545.95584a7.24992 7.24992 0 0 1 7.24992-7.4752h51.93728c53.22752 0 97.8944 40.1408 103.56736 93.0816l28.44672 265.8304c3.87072 36.22912 34.44736 63.6928 70.88128 63.6928h180.89984c36.43392 0 66.99008-27.46368 70.88128-63.6928l28.44672-265.8304c5.67296-52.9408 50.33984-93.0816 103.56736-93.0816h51.89632m0-18.432h-51.93728c-62.81216 0-115.22048 47.104-121.89696 109.54752l-28.44672 265.8304a52.75648 52.75648 0 0 1-52.55168 47.22688h-180.89984a52.75648 52.75648 0 0 1-52.55168-47.22688l-28.44672-265.8304c-6.67648-62.44352-59.0848-109.54752-121.89696-109.54752H166.72768c-6.90176 0-13.63968 2.84672-18.432 7.80288a25.853952 25.853952 0 0 0-7.22944 18.67776l17.14176 545.95584c0.90112 28.69248 24.10496 51.17952 52.81792 51.17952h601.96864c28.71296 0 51.89632-22.48704 52.79744-51.17952l17.14176-545.95584c0.22528-6.90176-2.41664-13.7216-7.22944-18.67776a25.802752 25.802752 0 0 0-18.432-7.80288z"
    p-id="25441"></path>
  <path
    d="M347.93472 772.68992h-38.42048c-5.09952 0-9.216-4.11648-9.216-9.216s4.11648-9.216 9.216-9.216h38.42048a9.216 9.216 0 0 1 9.216 9.216c0 5.07904-4.13696 9.216-9.216 9.216zM381.0304 804.10624h-33.09568a9.216 9.216 0 0 1 0-18.432h33.09568a9.216 9.216 0 0 1 0 18.432zM691.95776 741.25312h-17.46944a9.216 9.216 0 0 1 0-18.432h17.46944c5.09952 0 9.216 4.11648 9.216 9.216 0 5.07904-4.13696 9.216-9.216 9.216zM725.64736 776.17152h-17.98144a9.216 9.216 0 0 1 0-18.432h17.98144a9.216 9.216 0 0 1 0 18.432z"
    fill="#BB3284" p-id="25442"></path>
  <path
    d="M690.85184 856.9856v-20.1728c0-5.09952 4.11648-9.216 9.216-9.216s9.216 4.11648 9.216 9.216v20.1728h71.10656c18.57536 0 33.792-14.7456 34.38592-33.32096l3.52256-112.10752h-30.28992c-5.09952 0-9.216-4.11648-9.216-9.216s4.11648-9.216 9.216-9.216h30.86336l1.06496-33.64864c-2.58048-1.6384-4.3008-4.48512-4.3008-7.76192 0-3.4816 1.9456-6.47168 4.79232-8.02816l6.144-195.7888h-26.35776a9.216 9.216 0 0 1 0-18.432h26.9312l3.54304-113.02912h-25.37472c-42.63936 0-79.72864 25.78432-95.744 63.26272h27.77088c5.09952 0 9.216 4.11648 9.216 9.216s-4.11648 9.216-9.216 9.216H703.6928c-0.8192 3.72736-1.51552 7.51616-1.92512 11.38688l-28.44672 265.8304c-3.87072 36.22912-34.44736 63.6928-70.88128 63.6928h-45.03552v13.96736c0 5.09952-4.11648 9.216-9.216 9.216s-9.216-4.11648-9.216-9.216v-13.96736h-43.86816v36.67968a9.216 9.216 0 0 1-18.432 0v-36.67968h-55.11168c-34.01728 0-62.91456-23.9616-69.75488-56.6272-18.3296-11.20256-31.29344-30.49472-33.73056-53.248l-3.52256-32.82944h-8.54016a9.216 9.216 0 0 1 0-18.432h6.57408l-14.97088-139.96032h-26.07104c-5.09952 0-9.216-4.11648-9.216-9.216s4.11648-9.216 9.216-9.216h24.10496l-6.02112-56.17664c-0.88064-8.21248-2.80576-16.0768-5.44768-23.57248-17.98144-14.58176-40.79616-23.32672-65.536-23.32672H166.72768c-4.096 0-7.3728 3.3792-7.24992 7.4752l11.32544 360.50944h54.8864c5.09952 0 9.216 4.11648 9.216 9.216s-4.11648 9.216-9.216 9.216H171.39712l4.83328 154.05056c0.73728 0.04096 1.45408 0.1024 2.19136 0.1024h512.43008z"
    fill="#FE7193" p-id="25443"></path>
  <path
    d="M225.6896 702.83264a9.216 9.216 0 0 0 0-18.432H170.8032l0.57344 18.432h54.31296zM381.0304 870.912c-5.09952 0-9.216 4.11648-9.216 9.216V903.168h18.432v-23.04c0-5.09952-4.11648-9.216-9.216-9.216zM476.672 775.68a9.216 9.216 0 0 0 18.432 0v-36.67968h-18.432v36.67968zM538.99264 752.98816c0 5.09952 4.11648 9.216 9.216 9.216s9.216-4.11648 9.216-9.216v-13.96736h-18.432v13.96736zM690.85184 856.9856h18.432V903.168h-18.432z"
    fill="#BB3284" p-id="25444"></path>
  <path
    d="M700.06784 827.5968c-5.09952 0-9.216 4.11648-9.216 9.216v20.1728h18.432v-20.1728a9.216 9.216 0 0 0-9.216-9.216zM735.60064 870.912c-5.09952 0-9.216 4.11648-9.216 9.216V903.168h18.432v-23.04c0-5.09952-4.11648-9.216-9.216-9.216zM820.4288 643.66592l-0.49152 15.81056c1.4336 0.90112 3.11296 1.45408 4.9152 1.45408h29.0816l0.57344-18.432h-29.65504c-1.61792-0.02048-3.11296 0.43008-4.42368 1.16736zM815.63648 651.69408c0 3.2768 1.72032 6.12352 4.3008 7.76192l0.49152-15.81056c-2.84672 1.59744-4.79232 4.58752-4.79232 8.04864zM818.2784 711.55712h34.05824l0.57344-18.432h-34.03776zM778.77248 702.34112c0 5.09952 4.11648 9.216 9.216 9.216h30.28992l0.57344-18.432h-30.86336c-5.07904 0-9.216 4.13696-9.216 9.216zM737.36192 398.11072c5.09952 0 9.216-4.11648 9.216-9.216s-4.11648-9.216-9.216-9.216h-27.77088c-2.51904 5.87776-4.5056 12.04224-5.89824 18.432h33.66912zM826.5728 447.87712h34.03776l0.59392-18.432h-34.05824zM800.21504 429.44512a9.216 9.216 0 0 0 0 18.432h26.35776l0.57344-18.432h-26.9312zM297.61536 437.92384h27.66848l-1.98656-18.432h-27.648z"
    fill="#BB3284" p-id="25445"></path>
  <path
    d="M271.54432 419.49184c-5.09952 0-9.216 4.11648-9.216 9.216s4.11648 9.216 9.216 9.216h26.07104l-1.96608-18.432h-24.10496zM314.5728 596.29568h27.648l-1.96608-18.432h-27.66848zM306.01216 577.86368a9.216 9.216 0 0 0 0 18.432h8.54016l-1.96608-18.432h-6.57408z"
    fill="#BB3284" p-id="25446"></path>
  <path d="M381.0304 339.10784h261.9392v99.5328h-261.9392z" fill="#FFD249" p-id="25447"></path>
  <path
    d="M642.9696 339.12832v99.5328h-261.9392v-99.5328h261.9392m18.432-18.45248h-298.8032v136.3968h298.8032v-136.3968z"
    p-id="25448"></path>
  <path d="M403.23072 356.57728h220.61056v65.18784H403.23072z" fill="#FF9648" p-id="25449"></path>
  <path
    d="M594.16576 641.69984h-150.17984a9.216 9.216 0 0 1 0-18.432h150.17984a9.216 9.216 0 0 1 0 18.432zM594.16576 583.20896h-75.10016a9.216 9.216 0 0 1 0-18.432h75.10016a9.216 9.216 0 0 1 0 18.432zM456.192 521.216h-50.64704c-5.09952 0-9.216-4.11648-9.216-9.216s4.11648-9.216 9.216-9.216h50.64704c5.09952 0 9.216 4.11648 9.216 9.216s-4.11648 9.216-9.216 9.216z"
    fill="#EACDAD" p-id="25450"></path>
  <path d="M620.35968 521.216h-52.38784a9.216 9.216 0 0 1 0-18.432h52.38784a9.216 9.216 0 0 1 0 18.432z" fill="#FFFFF8"
    p-id="25451"></path>
  <path
    d="M392.02816 290.7136h-72.02816c-5.09952 0-9.216-4.11648-9.216-9.216s4.11648-9.216 9.216-9.216h72.02816a9.216 9.216 0 0 1 9.216 9.216c0 5.07904-4.13696 9.216-9.216 9.216zM725.64736 290.7136h-51.15904a9.216 9.216 0 0 1 0-18.432h51.15904a9.216 9.216 0 0 1 0 18.432z"
    fill="#EACDAD" p-id="25452"></path>
  <path
    d="M220.44672 662.67136c-4.87424 0-8.94976-3.82976-9.19552-8.76544l-12.22656-244.49024c-0.26624-5.07904 3.66592-9.40032 8.74496-9.66656 4.97664-0.28672 9.40032 3.66592 9.66656 8.74496l12.22656 244.49024c0.26624 5.07904-3.66592 9.40032-8.74496 9.66656-0.16384 0.02048-0.3072 0.02048-0.47104 0.02048z"
    fill="#FF89AB" p-id="25453"></path>
  <path
    d="M498.11456 828.55936H417.792a9.216 9.216 0 0 1 0-18.432h80.32256c5.09952 0 9.216 4.13696 9.216 9.216s-4.13696 9.216-9.216 9.216zM700.06784 828.55936h-57.09824c-5.09952 0-9.216-4.13696-9.216-9.216s4.13696-9.216 9.216-9.216h57.09824c5.09952 0 9.216 4.13696 9.216 9.216s-4.13696 9.216-9.216 9.216zM772.28032 551.71072h-52.38784a9.216 9.216 0 0 1 0-18.432h52.38784c5.09952 0 9.216 4.13696 9.216 9.216s-4.13696 9.216-9.216 9.216z"
    fill="#EE5E8F" p-id="25454"></path>
</svg>