<?xml version="1.0" standalone="no"?><!DOCTYPE svg PUBLIC "-//W3C//DTD SVG 1.1//EN" "http://www.w3.org/Graphics/SVG/1.1/DTD/svg11.dtd"><svg t="1650353761978" class="icon" viewBox="0 0 1024 1024" version="1.1" xmlns="http://www.w3.org/2000/svg" p-id="20083" xmlns:xlink="http://www.w3.org/1999/xlink" width="200" height="200"><defs><style type="text/css">@font-face { font-family: feedback-iconfont; src: url("//at.alicdn.com/t/font_1031158_u69w8yhxdu.woff2?t=1630033759944") format("woff2"), url("//at.alicdn.com/t/font_1031158_u69w8yhxdu.woff?t=1630033759944") format("woff"), url("//at.alicdn.com/t/font_1031158_u69w8yhxdu.ttf?t=1630033759944") format("truetype"); }
</style></defs><path d="M315.4432 630.71232c-0.45056 0-0.91136-0.03072-1.37216-0.08192-5.96992-0.74752-10.19904-6.18496-9.46176-12.15488 0.4096-3.26656 10.6496-80.52736 69.87776-112.66048 37.76512-20.49024 85.90336-17.57184 143.17568 8.69376 25.87648-27.74016 134.71744-134.51264 240.0256-92.48768 5.59104 2.23232 8.31488 8.57088 6.08256 14.16192-2.23232 5.59104-8.58112 8.31488-14.16192 6.08256-103.80288-41.39008-219.89376 91.32032-221.05088 92.672l-5.4784 6.35904-7.54688-3.67616c-53.79072-26.18368-97.72032-30.464-130.54976-12.6976-49.36704 26.68544-58.66496 95.56992-58.75712 96.26624-0.67584 5.48864-5.376 9.5232-10.78272 9.5232z" fill="#6F6973" p-id="20084"></path><path d="M657.99168 652.97408c-0.11264 0-0.21504 0-0.32768-0.01024-6.02112-0.17408-10.752-5.19168-10.57792-11.2128 0.8192-27.9552-7.26016-50.67776-24.0128-67.55328-36.2496-36.51584-101.80608-35.59424-102.5024-35.49184l-8.33536 0.18432-2.36544-8.00768c-46.25408-157.0304-213.8624-184.08448-215.552-184.34048-5.94944-0.90112-10.04544-6.44096-9.15456-12.3904 0.89088-5.94944 6.42048-10.04544 12.38016-9.1648 1.792 0.26624 177.52064 28.27264 230.85056 192.0512 20.75648 0.8704 75.13088 6.6048 110.06976 41.71776 21.18656 21.28896 31.41632 49.41824 30.4128 83.63008-0.17408 5.91872-5.0176 10.58816-10.88512 10.58816zM773.62176 608.23552c-4.42368 0-8.58112-2.7136-10.20928-7.09632-41.87136-112.50688-140.12416-84.77696-144.2816-83.53792-5.75488 1.7408-11.8272-1.55648-13.55776-7.31136-1.72032-5.75488 1.52576-11.81696 7.2704-13.54752 1.20832-0.37888 121.87648-35.1744 170.98752 96.79872 2.0992 5.64224-0.768 11.91936-6.41024 14.01856-1.24928 0.45056-2.52928 0.67584-3.79904 0.67584zM476.96896 695.64416c-5.3248 0-9.984-3.90144-10.77248-9.3184-13.27104-90.96192 34.28352-119.31648 36.32128-120.4736 5.2224-2.99008 11.88864-1.1776 14.86848 4.0448 2.9696 5.19168 1.19808 11.79648-3.9424 14.81728-1.71008 1.04448-36.62848 23.40864-25.67168 98.46784 0.8704 5.95968-3.25632 11.48928-9.20576 12.35968-0.54272 0.07168-1.06496 0.1024-1.59744 0.1024z" fill="#6F6973" p-id="20085"></path><path d="M221.34784 518.73792c-1.91488 0-3.85024-0.512-5.61152-1.56672-5.15072-3.10272-6.81984-9.7792-3.72736-14.92992 0.62464-1.05472 64.4096-104.62208 181.97504-67.18464 5.7344 1.82272 8.9088 7.95648 7.07584 13.69088-1.82272 5.7344-7.96672 8.89856-13.69088 7.08608-100.93568-32.12288-154.44992 53.95456-156.68224 57.64096-2.03776 3.38944-5.64224 5.26336-9.33888 5.26336zM527.88224 455.424c-5.85728 0-10.69056-4.64896-10.88512-10.5472-0.12288-3.85024-0.98304-38.12352 7.55712-57.7024 2.4064-5.50912 8.82688-8.0384 14.34624-5.64224 5.51936 2.4064 8.0384 8.82688 5.64224 14.34624-5.57056 12.78976-6.0416 39.19872-5.75488 48.29184 0.19456 6.02112-4.52608 11.0592-10.53696 11.24352-0.12288 0-0.24576 0.01024-0.36864 0.01024z" fill="#6F6973" p-id="20086"></path><path d="M381.7984 642.85696l0.0512 43.59168c0 0.93184 0.4608 1.80224 1.2288 2.32448l35.9424 24.66816c1.92512 1.32096 1.50528 4.29056-0.72704 5.0176l-41.44128 13.5168c-0.88064 0.28672-1.56672 0.99328-1.83296 1.88416l-12.35968 41.79968c-0.6656 2.24256-3.61472 2.75456-4.98688 0.86016l-25.66144-35.23584c-0.54272-0.74752-1.4336-1.18784-2.3552-1.15712l-43.5712 1.16736c-2.34496 0.06144-3.7376-2.58048-2.36544-4.48512l25.57952-35.29728c0.54272-0.74752 0.68608-1.73056 0.37888-2.60096l-14.57152-41.08288c-0.77824-2.2016 1.30048-4.352 3.5328-3.6352l41.472 13.42464c0.88064 0.28672 1.85344 0.12288 2.59072-0.45056l34.57024-26.56256c1.8432-1.41312 4.52608-0.09216 4.52608 2.2528z" fill="#C2D5CF" p-id="20087"></path><path d="M359.91552 788.59264c-4.33152 0-8.41728-2.048-11.03872-5.64224l-23.17312-31.81568-39.33184 1.05472c-5.15072 0.28672-10.04544-2.65216-12.50304-7.31136-2.4576-4.6592-2.06848-10.19904 1.024-14.44864L297.984 698.5728l-13.1584-37.08928a13.631488 13.631488 0 0 1 3.09248-14.15168c3.67616-3.76832 9.07264-5.08928 14.06976-3.4816l37.4272 12.10368 31.20128-23.97184c4.17792-3.20512 9.69728-3.7376 14.41792-1.4336 4.72064 2.32448 7.65952 7.03488 7.66976 12.29824l0.0512 39.35232 32.44032 22.26176c4.34176 2.99008 6.57408 8.07936 5.81632 13.28128-0.75776 5.21216-4.33152 9.46176-9.33888 11.07968l-37.39648 12.20608-11.15136 37.72416c-1.49504 5.04832-5.64224 8.74496-10.82368 9.63584-0.79872 0.13312-1.59744 0.2048-2.38592 0.2048z m-30.14656-59.36128c4.32128 0 8.43776 2.06848 11.02848 5.61152l16.05632 22.03648 7.72096-26.112c1.31072-4.38272 4.6592-7.79264 8.94976-9.1648l25.84576-8.43776-22.45632-15.4112c-3.74784-2.60096-5.95968-6.81984-5.95968-11.30496l-0.03072-27.21792-21.59616 16.5888a13.727744 13.727744 0 0 1-12.56448 2.18112l-25.92768-8.38656 9.10336 25.67168c1.51552 4.21888 0.83968 8.94976-1.80224 12.61568l-15.99488 22.0672 27.21792-0.72704c0.14336-0.01024 0.27648-0.01024 0.4096-0.01024z m0.21504 21.79072l-0.06144 0.01024c0.02048-0.01024 0.04096-0.01024 0.06144-0.01024z m50.31936-8.704l-0.07168 0.02048c0.03072-0.01024 0.0512-0.01024 0.07168-0.02048z m34.6112-34.22208c-0.01024 0-0.01024 0-0.02048 0.01024l0.02048-0.01024z m-115.52768-5.53984c0.01024 0.01024 0.01024 0.02048 0.01024 0.03072l-0.01024-0.03072z m93.36832-16.13824v0z m-21.85216-43.55072z" fill="#6F6973" p-id="20088"></path><path d="M872.25344 363.83744l0.0512 43.59168c0 0.93184 0.4608 1.80224 1.2288 2.32448l35.9424 24.66816c1.92512 1.32096 1.50528 4.29056-0.72704 5.0176l-41.44128 13.5168c-0.88064 0.28672-1.56672 0.99328-1.83296 1.88416L853.11488 496.64c-0.6656 2.24256-3.61472 2.75456-4.98688 0.86016l-25.66144-35.23584c-0.54272-0.74752-1.4336-1.18784-2.3552-1.15712l-43.5712 1.16736c-2.34496 0.06144-3.7376-2.58048-2.36544-4.48512L799.744 422.5024c0.54272-0.75776 0.68608-1.73056 0.37888-2.60096l-14.57152-41.08288c-0.77824-2.2016 1.30048-4.352 3.5328-3.6352l41.472 13.42464c0.88064 0.28672 1.85344 0.12288 2.59072-0.45056l34.57024-26.56256c1.8432-1.42336 4.53632-0.1024 4.53632 2.24256z" fill="#F9D2C3" p-id="20089"></path><path d="M850.37056 509.57312c-4.33152 0-8.41728-2.048-11.03872-5.62176l-23.17312-31.82592-39.33184 1.05472c-5.44768 0.3584-10.07616-2.68288-12.51328-7.33184-2.44736-4.64896-2.048-10.17856 1.03424-14.42816l23.0912-31.86688-13.16864-37.08928c-1.76128-4.9664-0.5632-10.38336 3.10272-14.16192 3.66592-3.76832 9.05216-5.10976 14.05952-3.49184l37.43744 12.11392 31.20128-23.97184c4.17792-3.21536 9.70752-3.75808 14.4384-1.42336 4.7104 2.32448 7.64928 7.03488 7.64928 12.288l0.0512 39.34208 32.44032 22.272c4.33152 2.9696 6.56384 8.04864 5.81632 13.2608s-4.32128 9.46176-9.3184 11.10016l-37.41696 12.20608-11.15136 37.72416c-1.49504 5.04832-5.632 8.73472-10.81344 9.63584-0.80896 0.14336-1.60768 0.21504-2.39616 0.21504z m-30.23872-59.36128c4.41344 0 8.54016 2.08896 11.13088 5.62176l16.04608 22.02624 7.72096-26.12224c1.29024-4.352 4.62848-7.7824 8.94976-9.1648l25.84576-8.43776-22.45632-15.4112c-3.70688-2.53952-5.9392-6.7584-5.95968-11.264l-0.03072-27.25888-21.59616 16.5888a13.70112 13.70112 0 0 1-12.5952 2.17088l-25.9072-8.38656 9.10336 25.67168c1.50528 4.28032 0.8192 9.00096-1.83296 12.6464L792.576 450.93888l27.21792-0.72704h0.33792z m50.62656 13.08672l-0.07168 0.02048c0.02048-0.01024 0.0512-0.01024 0.07168-0.02048z m32.55296-19.88608h0.07168-0.07168z m-112.39424-27.31008c0 0.01024 0 0.01024-0.01024 0.01024l0.01024-0.01024z m35.59424-36.59776c-0.01024 0.01024-0.02048 0.02048-0.04096 0.03072l0.04096-0.03072z m56.63744-15.6672h0.07168-0.07168z" fill="#6F6973" p-id="20090"></path><path d="M594.51392 287.88736l0.04096 31.62112c0 0.67584 0.33792 1.30048 0.89088 1.6896l26.07104 17.89952c1.40288 0.96256 1.08544 3.11296-0.52224 3.6352l-30.06464 9.80992c-0.64512 0.2048-1.13664 0.7168-1.3312 1.36192l-8.96 30.33088c-0.48128 1.62816-2.62144 1.9968-3.62496 0.62464l-18.61632-25.55904c-0.39936-0.54272-1.03424-0.86016-1.71008-0.83968l-31.61088 0.84992c-1.69984 0.04096-2.7136-1.87392-1.71008-3.24608l18.55488-25.61024c0.39936-0.54272 0.50176-1.24928 0.27648-1.88416l-10.57792-29.80864c-0.5632-1.59744 0.94208-3.15392 2.56-2.63168l30.08512 9.73824a2.048 2.048 0 0 0 1.87392-0.32768l25.07776-19.26144c1.35168-1.04448 3.29728-0.09216 3.29728 1.60768z" fill="#F3C788" p-id="20091"></path><path d="M578.63168 396.60544c-4.096 0-7.94624-1.92512-10.42432-5.3248l-15.88224-21.80096-26.96192 0.72704c-5.0176 0.12288-9.48224-2.5088-11.79648-6.912-2.31424-4.39296-1.9456-9.6256 0.9728-13.63968l15.8208-21.83168-9.02144-25.41568c-1.65888-4.67968-0.54272-9.79968 2.9184-13.35296 3.46112-3.55328 8.5504-4.8128 13.2608-3.29728l25.67168 8.30464 21.39136-16.4352c3.9424-3.0208 9.1648-3.54304 13.60896-1.34144 4.4544 2.19136 7.2192 6.63552 7.2192 11.60192l0.03072 26.97216 22.24128 15.26784c4.08576 2.80576 6.1952 7.59808 5.48864 12.51328-0.70656 4.90496-4.07552 8.91904-8.79616 10.46528l-25.6512 8.37632-7.63904 25.86624c-1.41312 4.77184-5.3248 8.2432-10.20928 9.09312-0.75776 0.1024-1.50528 0.16384-2.24256 0.16384z m-21.90336-49.0496c4.1472 0 8.0384 1.97632 10.47552 5.33504l8.05888 11.0592 3.88096-13.12768c1.20832-4.096 4.352-7.3216 8.40704-8.64256l13.01504-4.2496-11.29472-7.75168a12.954624 12.954624 0 0 1-5.62176-10.67008l-0.02048-13.68064-10.8544 8.33536c-3.3792 2.59072-7.81312 3.35872-11.84768 2.05824l-13.056-4.22912 4.57728 12.9024c1.42336 4.0448 0.77824 8.4992-1.73056 11.93984l-8.01792 11.06944 13.69088-0.36864c0.11264 0.02048 0.22528 0.02048 0.33792 0.02048z m58.624 0.53248h0.07168-0.07168z m-82.25792-24.03328l-0.02048 0.02048 0.02048-0.02048z m72.35584-4.56704v0z m-0.04096-31.60064h0.07168-0.07168z" fill="#6F6973" p-id="20092"></path><path d="M706.97984 622.21312L723.00544 672.768a3.448832 3.448832 0 0 0 2.27328 2.2528l50.72896 15.4624c2.72384 0.82944 3.31776 4.42368 0.99328 6.08256l-43.12064 30.86336a3.4304 3.4304 0 0 0-1.4336 2.85696l0.9728 53.02272c0.0512 2.84672-3.18464 4.51584-5.4784 2.82624l-42.67008-31.47776c-0.91136-0.67584-2.08896-0.84992-3.16416-0.48128l-50.1248 17.3056c-2.69312 0.93184-5.28384-1.62816-4.38272-4.33152l16.75264-50.30912c0.3584-1.0752 0.16384-2.2528-0.52224-3.15392l-31.9488-42.32192c-1.72032-2.27328-0.08192-5.5296 2.7648-5.50912l53.02272 0.37888c1.1264 0.01024 2.19136-0.54272 2.83648-1.46432l30.38208-43.4688c1.6384-2.34496 5.23264-1.80224 6.0928 0.91136z" fill="#F3C788" p-id="20093"></path><path d="M729.96864 797.70624c-2.99008 0-5.95968-0.95232-8.48896-2.80576l-39.5264-29.16352-46.41792 16.03584c-5.20192 1.77152-10.8544 0.512-14.76608-3.35872-3.91168-3.87072-5.25312-9.50272-3.51232-14.72512l15.50336-46.592-29.58336-39.18848c-3.30752-4.39296-3.82976-10.16832-1.36192-15.07328 2.4576-4.88448 7.35232-7.89504 12.8-7.89504h0.11264l49.1008 0.3584 28.12928-40.25344c3.15392-4.51584 8.50944-6.77888 13.91616-5.95968 5.43744 0.83968 9.84064 4.608 11.48928 9.85088l14.83776 46.7968 46.97088 14.31552c5.25312 1.60768 9.08288 5.96992 9.96352 11.39712 0.89088 5.4272-1.34144 10.78272-5.80608 13.9776l-39.92576 28.5696 0.90112 49.1008c0.09216 5.50912-2.87744 10.47552-7.75168 12.99456a14.251008 14.251008 0 0 1-6.58432 1.61792z m-46.7456-54.6304c3.01056 0 5.98016 0.94208 8.47872 2.7648l30.53568 22.53824-0.69632-37.89824c-0.09216-4.70016 2.14016-9.1648 5.96992-11.90912l30.84288-22.0672-36.25984-11.0592c-4.5056-1.35168-8.05888-4.87424-9.48224-9.39008l-11.44832-36.12672-21.71904 31.06816c-2.70336 3.86048-6.97344 6.46144-11.83744 6.12352l-37.90848-0.27648 22.8352 30.24896c2.84672 3.79904 3.64544 8.72448 2.1504 13.17888l-11.97056 35.95264 35.82976-12.36992c1.52576-0.53248 3.10272-0.77824 4.67968-0.77824z m-49.21344-29.696v0.01024-0.01024z m138.82368-12.48256h0.07168-0.07168z m-39.44448-31.4368v0z m-4.9664-4.88448l0.04096 0.01024c-0.01024 0-0.02048 0-0.04096-0.01024z" fill="#6F6973" p-id="20094"></path><path d="M115.42528 314.4704l49.00864-20.24448a3.433472 3.433472 0 0 0 2.048-2.4576l11.1104-51.85536c0.59392-2.78528 4.12672-3.67616 5.96992-1.50528l34.39616 40.35584c0.73728 0.86016 1.8432 1.30048 2.9696 1.18784l52.74624-5.45792c2.83648-0.29696 4.77184 2.78528 3.2768 5.21216l-27.7504 45.18912a3.4304 3.4304 0 0 0-0.21504 3.19488l21.49376 48.47616c1.15712 2.60096-1.1776 5.39648-3.9424 4.73088l-51.54816-12.43136c-1.09568-0.26624-2.26304 0.03072-3.10272 0.77824l-39.46496 35.42016c-2.11968 1.90464-5.49888 0.55296-5.72416-2.29376l-4.10624-52.86912c-0.09216-1.1264-0.72704-2.14016-1.69984-2.70336l-45.88544-26.58304c-2.4576-1.42336-2.21184-5.05856 0.41984-6.144z" fill="#FFBBAC" p-id="20095"></path><path d="M170.16832 416.84992c-1.80224 0-3.61472-0.33792-5.35552-1.04448-5.09952-2.048-8.54016-6.71744-8.96-12.19584l-3.80928-48.95744-42.48576-24.61696c-4.75136-2.74432-7.4752-7.86432-7.1168-13.34272 0.3584-5.48864 3.74784-10.19904 8.82688-12.29824l45.38368-18.74944 10.28096-48.01536c1.14688-5.376 5.1712-9.55392 10.50624-10.89536 5.34528-1.3312 10.8544 0.41984 14.41792 4.59776l31.85664 37.36576 48.8448-5.05856c5.4784-0.59392 10.67008 1.97632 13.60896 6.62528 2.92864 4.64896 2.95936 10.45504 0.08192 15.13472l-25.69216 41.84064 19.89632 44.89216c2.23232 5.0176 1.4336 10.76224-2.08896 14.98112-3.51232 4.22912-9.0112 6.07232-14.36672 4.7616l-47.73888-11.50976-36.54656 32.79872c-2.69312 2.42688-6.0928 3.6864-9.54368 3.6864z m-36.608-98.07872l32.79872 19.00544c4.07552 2.36544 6.73792 6.58432 7.10656 11.28448l2.93888 37.80608 28.2112-25.32352c3.51232-3.15392 8.35584-4.37248 12.94336-3.26656l36.84352 8.88832-15.36-34.65216c-1.91488-4.31104-1.5872-9.28768 0.89088-13.312l19.83488-32.29696-37.70368 3.90144c-4.63872 0.48128-9.3184-1.36192-12.38016-4.9664l-24.58624-28.84608-7.936 37.0688c-0.99328 4.608-4.17792 8.43776-8.52992 10.24l-35.072 14.46912z m21.8624 37.85728h0.07168-0.07168z" fill="#6F6973" p-id="20096"></path><path d="M426.02496 260.51584m-16.97792 0a16.97792 16.97792 0 1 0 33.95584 0 16.97792 16.97792 0 1 0-33.95584 0Z" fill="#6F6973" p-id="20097"></path><path d="M713.73824 306.86208m-16.97792 0a16.97792 16.97792 0 1 0 33.95584 0 16.97792 16.97792 0 1 0-33.95584 0Z" fill="#6F6973" p-id="20098"></path><path d="M195.38944 564.98176m-16.97792 0a16.97792 16.97792 0 1 0 33.95584 0 16.97792 16.97792 0 1 0-33.95584 0Z" fill="#6F6973" p-id="20099"></path><path d="M487.92576 736.28672m-16.97792 0a16.97792 16.97792 0 1 0 33.95584 0 16.97792 16.97792 0 1 0-33.95584 0Z" fill="#6F6973" p-id="20100"></path><path d="M790.59968 650.93632m-16.97792 0a16.97792 16.97792 0 1 0 33.95584 0 16.97792 16.97792 0 1 0-33.95584 0Z" fill="#6F6973" p-id="20101"></path><path d="M868.38272 602.83904m-16.97792 0a16.97792 16.97792 0 1 0 33.95584 0 16.97792 16.97792 0 1 0-33.95584 0Z" fill="#6F6973" p-id="20102"></path></svg>