<?xml version="1.0" standalone="no"?><!DOCTYPE svg PUBLIC "-//W3C//DTD SVG 1.1//EN" "http://www.w3.org/Graphics/SVG/1.1/DTD/svg11.dtd"><svg t="1650353872214" class="icon" viewBox="0 0 1024 1024" version="1.1" xmlns="http://www.w3.org/2000/svg" p-id="6086" xmlns:xlink="http://www.w3.org/1999/xlink" width="200" height="200"><defs><style type="text/css">@font-face { font-family: feedback-iconfont; src: url("//at.alicdn.com/t/font_1031158_u69w8yhxdu.woff2?t=1630033759944") format("woff2"), url("//at.alicdn.com/t/font_1031158_u69w8yhxdu.woff?t=1630033759944") format("woff"), url("//at.alicdn.com/t/font_1031158_u69w8yhxdu.ttf?t=1630033759944") format("truetype"); }
</style></defs><path d="M907.264 378.538667m-90.453333 0a90.453333 90.453333 0 1 0 180.906666 0 90.453333 90.453333 0 1 0-180.906666 0Z" fill="#C5BED4" p-id="6087"></path><path d="M431.786667 559.445333m-90.453334 0a90.453333 90.453333 0 1 0 180.906667 0 90.453333 90.453333 0 1 0-180.906667 0Z" fill="#C5BED4" p-id="6088"></path><path d="M717.824 724.992m-90.453333 0a90.453333 90.453333 0 1 0 180.906666 0 90.453333 90.453333 0 1 0-180.906666 0Z" fill="#C5BED4" p-id="6089"></path><path d="M155.989333 803.84m-90.453333 0a90.453333 90.453333 0 1 0 180.906667 0 90.453333 90.453333 0 1 0-180.906667 0Z" fill="#C5BED4" p-id="6090"></path><path d="M878.592 428.373333c-59.733333 0-108.202667-48.469333-108.202667-108.202666S818.858667 211.626667 878.592 211.626667s108.202667 48.469333 108.202667 108.202666-48.469333 108.544-108.202667 108.544z m0-180.906666c-39.936 0-72.704 32.426667-72.704 72.704s32.426667 72.704 72.704 72.704c39.936 0 72.362667-32.426667 72.362667-72.704s-32.426667-72.704-72.362667-72.704zM403.114667 609.28c-59.733333 0-108.202667-48.469333-108.202667-108.202667s48.469333-108.202667 108.202667-108.202666 108.202667 48.469333 108.202666 108.202666c0 59.392-48.469333 108.202667-108.202666 108.202667z m0-180.906667c-39.936 0-72.704 32.426667-72.704 72.362667s32.426667 72.704 72.704 72.704 72.704-32.426667 72.704-72.704c0-39.936-32.768-72.362667-72.704-72.362667zM689.152 774.826667c-59.733333 0-108.202667-48.469333-108.202667-108.202667s48.469333-108.202667 108.202667-108.202667 108.202667 48.469333 108.202667 108.202667c0 59.392-48.469333 108.202667-108.202667 108.202667z m0-180.906667c-39.936 0-72.362667 32.426667-72.362667 72.704 0 39.936 32.426667 72.362667 72.362667 72.362667s72.704-32.426667 72.704-72.362667c-0.341333-40.277333-32.768-72.704-72.704-72.704zM127.317333 853.333333c-59.733333 0-108.202667-48.469333-108.202666-108.202666s48.469333-108.202667 108.202666-108.202667S235.52 685.397333 235.52 745.130667 187.050667 853.333333 127.317333 853.333333z m0-180.565333c-39.936 0-72.704 32.426667-72.704 72.362667s32.426667 72.704 72.704 72.704 72.704-32.426667 72.704-72.704c-0.341333-39.936-32.768-72.362667-72.704-72.362667z" p-id="6091"></path><path d="M724.21376 581.95968l110.933333-181.015893 30.55616 18.725546-110.933333 181.015894zM461.950293 578.003627l15.428267-32.34816 134.94272 64.3584-15.428267 32.351573zM181.562027 680.86784l139.332266-135.29088 24.968534 25.709227-139.332267 135.294293z" p-id="6092"></path></svg>