<?xml version="1.0" standalone="no"?><!DOCTYPE svg PUBLIC "-//W3C//DTD SVG 1.1//EN" "http://www.w3.org/Graphics/SVG/1.1/DTD/svg11.dtd"><svg t="1650363790292" class="icon" viewBox="0 0 1024 1024" version="1.1" xmlns="http://www.w3.org/2000/svg" p-id="16865" xmlns:xlink="http://www.w3.org/1999/xlink" width="200" height="200"><defs><style type="text/css">@font-face { font-family: feedback-iconfont; src: url("//at.alicdn.com/t/font_1031158_u69w8yhxdu.woff2?t=1630033759944") format("woff2"), url("//at.alicdn.com/t/font_1031158_u69w8yhxdu.woff?t=1630033759944") format("woff"), url("//at.alicdn.com/t/font_1031158_u69w8yhxdu.ttf?t=1630033759944") format("truetype"); }
</style></defs><path d="M512 512m-407.36768 0a407.36768 407.36768 0 1 0 814.73536 0 407.36768 407.36768 0 1 0-814.73536 0Z" fill="#276400" p-id="16866"></path><path d="M512 921.6c-225.85344 0-409.6-183.74656-409.6-409.6S286.14656 102.4 512 102.4s409.6 183.74656 409.6 409.6-183.74656 409.6-409.6 409.6z m0-814.71488C288.60416 106.88512 106.88512 288.60416 106.88512 512S288.60416 917.11488 512 917.11488 917.11488 735.39584 917.11488 512 735.39584 106.88512 512 106.88512z" fill="#559702" p-id="16867"></path><path d="M512 512m-391.0656 0a391.0656 391.0656 0 1 0 782.1312 0 391.0656 391.0656 0 1 0-782.1312 0Z" fill="#F7AA63" p-id="16868"></path><path d="M249.97888 758.31296c-60.6208-64.3072-97.77152-150.95808-97.77152-246.31296 0-198.3488 160.78848-359.15776 359.15776-359.15776S870.5024 313.6512 870.5024 512s-160.78848 359.15776-359.15776 359.15776c-102.99392 0-195.87072-43.37664-261.36576-112.8448" fill="#FE7320" p-id="16869"></path><path d="M219.3408 708.54656c-38.23616-56.70912-60.416-125.17376-59.94496-198.81984 1.2288-192.98304 160.31744-350.4128 353.30048-349.67552 174.30528 0.65536 318.73024 128 345.98912 294.72768 5.30432 32.44032-12.9024 64.18432-43.45856 76.30848L303.3088 734.28992c-30.55616 12.12416-65.57696 1.51552-83.968-25.74336z" fill="#FE8F36" p-id="16870"></path><path d="M534.46656 287.5392l31.72352 71.94624c3.8912 8.84736 13.06624 14.1312 22.69184 13.08672l78.15168-8.4992c38.93248-4.23936 64.34816 39.79264 41.20576 71.3728l-46.44864 63.44704a22.155264 22.155264 0 0 0 0 26.19392l46.44864 63.44704c23.12192 31.60064-2.29376 75.61216-41.20576 71.3728l-78.15168-8.4992c-9.60512-1.04448-18.78016 4.25984-22.69184 13.08672l-31.72352 71.94624c-15.79008 35.81952-66.62144 35.81952-82.432 0l-31.72352-71.94624c-3.8912-8.84736-13.06624-14.1312-22.69184-13.08672L319.488 659.90656c-38.93248 4.23936-64.34816-39.79264-41.20576-71.3728l46.44864-63.44704c5.71392-7.80288 5.71392-18.39104 0-26.19392l-46.44864-63.44704C255.16032 403.84512 280.576 359.8336 319.488 364.07296l78.15168 8.4992c9.60512 1.04448 18.78016-4.25984 22.69184-13.08672l31.72352-71.94624c15.79008-35.81952 66.62144-35.81952 82.41152 0z" fill="#B92211" p-id="16871"></path><path d="M493.2608 771.9936c-21.6064 0-40.42752-12.288-49.152-32.0512l-31.72352-71.94624a13.39392 13.39392 0 0 0-13.80352-7.96672l-78.17216 8.4992c-21.52448 2.31424-41.53344-7.84384-52.3264-26.54208s-9.58464-41.14432 3.1744-58.59328l46.44864-63.44704c3.4816-4.77184 3.4816-11.18208 0-15.93344l-46.44864-63.44704c-12.75904-17.42848-13.98784-39.87456-3.1744-58.59328 10.79296-18.69824 30.8224-28.85632 52.3264-26.54208l78.17216 8.4992c5.81632 0.65536 11.40736-2.56 13.80352-7.96672l31.72352-71.94624c8.72448-19.7632 27.5456-32.0512 49.152-32.0512s40.448 12.288 49.152 32.0512l31.72352 71.94624a13.438976 13.438976 0 0 0 13.80352 7.96672l78.15168-8.4992c21.48352-2.29376 41.53344 7.84384 52.3264 26.54208s9.58464 41.1648-3.1744 58.59328l-46.42816 63.44704a13.459456 13.459456 0 0 0 0 15.93344l46.42816 63.44704c12.75904 17.42848 13.98784 39.87456 3.1744 58.59328-10.79296 18.69824-30.84288 28.85632-52.3264 26.54208l-78.15168-8.4992c-5.8368-0.67584-11.42784 2.56-13.80352 7.96672l-31.72352 71.94624c-8.704 19.78368-27.5456 32.0512-49.152 32.0512z m-93.16352-129.39264c12.12416 0 23.18336 7.08608 28.18048 18.41152l31.72352 71.94624c5.89824 13.37344 18.6368 21.68832 33.25952 21.68832 14.62272 0 27.38176-8.31488 33.28-21.68832l31.72352-71.94624c5.44768-12.36992 18.10432-19.64032 31.55968-18.2272l78.15168 8.4992c14.5408 1.59744 28.11904-5.30432 35.40992-17.96096 7.31136-12.65664 6.49216-27.8528-2.1504-39.64928l-46.42816-63.44704c-7.9872-10.89536-7.9872-25.53856 0-36.4544l46.42816-63.44704c8.64256-11.79648 9.46176-26.99264 2.1504-39.64928-7.31136-12.65664-20.86912-19.53792-35.40992-17.96096L589.824 381.21472c-13.4144 1.4336-26.112-5.85728-31.55968-18.2272l-31.72352-71.94624c-5.89824-13.37344-18.6368-21.68832-33.28-21.68832-14.62272 0-27.38176 8.31488-33.25952 21.68832l-31.72352 71.94624a30.74048 30.74048 0 0 1-31.55968 18.2272l-78.17216-8.4992c-14.5408-1.57696-28.11904 5.30432-35.40992 17.96096-7.31136 12.65664-6.49216 27.8528 2.1504 39.64928l46.44864 63.44704c7.9872 10.89536 7.9872 25.53856 0 36.4544l-46.44864 63.44704c-8.64256 11.79648-9.46176 26.99264-2.1504 39.64928 7.31136 12.67712 20.86912 19.57888 35.40992 17.96096l78.17216-8.4992c1.1264-0.12288 2.2528-0.18432 3.3792-0.18432z" fill="#FFA861" p-id="16872"></path><path d="M332.65664 392.76544l-15.1552 3.74784c-12.55424 3.11296-19.33312 16.73216-14.25408 28.63104l3.05152 7.12704s-9.29792 36.41344 28.28288 32.93184c0 0-5.03808 39.13728 32.54272 29.45024 0 0-5.03808 14.72512 5.4272 24.02304 0 0-9.68704 8.9088-7.35232 14.72512 0 0-30.6176-12.77952-32.1536 24.80128 0 0-40.69376-1.16736-25.57952 35.26656l-4.75136 10.28096c-4.93568 10.71104 0.38912 23.3472 11.50976 27.27936l16.4864 5.8368s28.672 25.57952 41.84064-8.51968c0 0 24.02304 19.37408 40.30464-9.29792l24.02304-0.38912s3.87072 15.11424 7.74144 16.2816c0 0-20.15232 22.46656 6.20544 40.30464 0 0-17.42848 37.5808 18.98496 39.5264l7.65952 9.46176c8.15104 10.0352 23.36768 10.3424 31.88736 0.6144l8.4992-9.68704s31.00672-9.68704 15.11424-39.91552c0 0 29.83936-9.29792 12.02176-39.13728 0 0 8.51968-4.25984 10.46528-17.8176 0 0 12.02176 5.81632 20.54144 1.55648 0 0 10.07616 29.06112 36.41344 9.68704 0 0 17.8176 29.83936 43.39712 8.13056l11.24352-2.23232c13.7216-2.72384 21.89312-16.91648 17.34656-30.14656l-3.39968-9.85088s17.8176-34.0992-27.89376-36.80256c0 0 7.74144-31.00672-28.672-27.11552 0 0 3.09248-13.94688-9.29792-14.72512 0 0 14.336-5.81632 10.07616-21.31968 0 0 31.76448 4.25984 25.96864-29.06112 0 0 35.65568 8.9088 27.89376-32.93184l5.71392-18.35008c2.78528-8.94976-2.58048-18.39104-11.69408-20.5824l-15.31904-3.6864s-33.32096-27.11552-44.17536 7.35232c0 0-24.41216-14.72512-36.0448 10.07616 0 0-18.98496-7.74144-24.02304-0.38912 0 0 0.38912-10.07616-8.9088-16.2816 0 0 19.37408-27.50464-10.46528-38.74816 0 0 15.50336-32.54272-14.72512-37.19168l-8.2944-10.05568c-7.94624-9.6256-22.69184-9.58464-30.59712 0.08192l-8.78592 10.752s-36.41344 2.70336-15.50336 38.35904c0 0-32.54272 9.68704-6.59456 39.13728 0 0-14.72512-0.38912-12.3904 18.59584 0 0-14.336-8.51968-24.02304-0.38912 0 0-6.59456-27.50464-35.65568-15.50336 0-0.02048-20.15232-36.06528-44.93312-3.8912z" fill="#010F0F" p-id="16873"></path><path d="M493.9776 313.97888m-8.62208 0a8.62208 8.62208 0 1 0 17.24416 0 8.62208 8.62208 0 1 0-17.24416 0Z" fill="#60483C" p-id="16874"></path><path d="M493.9776 350.02368m-8.62208 0a8.62208 8.62208 0 1 0 17.24416 0 8.62208 8.62208 0 1 0-17.24416 0Z" fill="#60483C" p-id="16875"></path><path d="M493.9776 386.06848m-8.62208 0a8.62208 8.62208 0 1 0 17.24416 0 8.62208 8.62208 0 1 0-17.24416 0Z" fill="#60483C" p-id="16876"></path><path d="M493.9776 421.2736m-8.62208 0a8.62208 8.62208 0 1 0 17.24416 0 8.62208 8.62208 0 1 0-17.24416 0Z" fill="#60483C" p-id="16877"></path><path d="M493.9776 456.45824m-8.62208 0a8.62208 8.62208 0 1 0 17.24416 0 8.62208 8.62208 0 1 0-17.24416 0Z" fill="#60483C" p-id="16878"></path><path d="M493.9776 491.66336m-8.62208 0a8.62208 8.62208 0 1 0 17.24416 0 8.62208 8.62208 0 1 0-17.24416 0Z" fill="#60483C" p-id="16879"></path><path d="M493.9776 526.848m-8.62208 0a8.62208 8.62208 0 1 0 17.24416 0 8.62208 8.62208 0 1 0-17.24416 0Z" fill="#60483C" p-id="16880"></path><path d="M493.9776 562.05312m-8.62208 0a8.62208 8.62208 0 1 0 17.24416 0 8.62208 8.62208 0 1 0-17.24416 0Z" fill="#60483C" p-id="16881"></path><path d="M493.9776 597.23776m-8.62208 0a8.62208 8.62208 0 1 0 17.24416 0 8.62208 8.62208 0 1 0-17.24416 0Z" fill="#60483C" p-id="16882"></path><path d="M493.9776 632.44288m-8.62208 0a8.62208 8.62208 0 1 0 17.24416 0 8.62208 8.62208 0 1 0-17.24416 0Z" fill="#60483C" p-id="16883"></path><path d="M493.9776 667.62752m-8.62208 0a8.62208 8.62208 0 1 0 17.24416 0 8.62208 8.62208 0 1 0-17.24416 0Z" fill="#60483C" p-id="16884"></path><path d="M493.9776 702.83264m-8.62208 0a8.62208 8.62208 0 1 0 17.24416 0 8.62208 8.62208 0 1 0-17.24416 0Z" fill="#60483C" p-id="16885"></path><path d="M467.27168 337.3056m-8.62208 0a8.62208 8.62208 0 1 0 17.24416 0 8.62208 8.62208 0 1 0-17.24416 0Z" fill="#60483C" p-id="16886"></path><path d="M467.27168 373.3504m-8.62208 0a8.62208 8.62208 0 1 0 17.24416 0 8.62208 8.62208 0 1 0-17.24416 0Z" fill="#60483C" p-id="16887"></path><path d="M467.27168 409.3952m-8.62208 0a8.62208 8.62208 0 1 0 17.24416 0 8.62208 8.62208 0 1 0-17.24416 0Z" fill="#60483C" p-id="16888"></path><path d="M467.27168 444.57984m-8.62208 0a8.62208 8.62208 0 1 0 17.24416 0 8.62208 8.62208 0 1 0-17.24416 0Z" fill="#60483C" p-id="16889"></path><path d="M467.27168 479.78496m-8.62208 0a8.62208 8.62208 0 1 0 17.24416 0 8.62208 8.62208 0 1 0-17.24416 0Z" fill="#60483C" p-id="16890"></path><path d="M467.27168 514.9696m-8.62208 0a8.62208 8.62208 0 1 0 17.24416 0 8.62208 8.62208 0 1 0-17.24416 0Z" fill="#60483C" p-id="16891"></path><path d="M467.27168 550.17472m-8.62208 0a8.62208 8.62208 0 1 0 17.24416 0 8.62208 8.62208 0 1 0-17.24416 0Z" fill="#60483C" p-id="16892"></path><path d="M467.27168 585.35936m-8.62208 0a8.62208 8.62208 0 1 0 17.24416 0 8.62208 8.62208 0 1 0-17.24416 0Z" fill="#60483C" p-id="16893"></path><path d="M467.27168 620.56448m-8.62208 0a8.62208 8.62208 0 1 0 17.24416 0 8.62208 8.62208 0 1 0-17.24416 0Z" fill="#60483C" p-id="16894"></path><path d="M467.27168 655.74912m-8.62208 0a8.62208 8.62208 0 1 0 17.24416 0 8.62208 8.62208 0 1 0-17.24416 0Z" fill="#60483C" p-id="16895"></path><path d="M467.27168 690.95424m-8.62208 0a8.62208 8.62208 0 1 0 17.24416 0 8.62208 8.62208 0 1 0-17.24416 0Z" fill="#60483C" p-id="16896"></path><path d="M520.62208 337.3056m-8.62208 0a8.62208 8.62208 0 1 0 17.24416 0 8.62208 8.62208 0 1 0-17.24416 0Z" fill="#60483C" p-id="16897"></path><path d="M520.62208 373.3504m-8.62208 0a8.62208 8.62208 0 1 0 17.24416 0 8.62208 8.62208 0 1 0-17.24416 0Z" fill="#60483C" p-id="16898"></path><path d="M520.62208 409.3952m-8.62208 0a8.62208 8.62208 0 1 0 17.24416 0 8.62208 8.62208 0 1 0-17.24416 0Z" fill="#60483C" p-id="16899"></path><path d="M520.62208 444.57984m-8.62208 0a8.62208 8.62208 0 1 0 17.24416 0 8.62208 8.62208 0 1 0-17.24416 0Z" fill="#60483C" p-id="16900"></path><path d="M520.62208 479.78496m-8.62208 0a8.62208 8.62208 0 1 0 17.24416 0 8.62208 8.62208 0 1 0-17.24416 0Z" fill="#60483C" p-id="16901"></path><path d="M520.62208 514.9696m-8.62208 0a8.62208 8.62208 0 1 0 17.24416 0 8.62208 8.62208 0 1 0-17.24416 0Z" fill="#60483C" p-id="16902"></path><path d="M520.62208 550.17472m-8.62208 0a8.62208 8.62208 0 1 0 17.24416 0 8.62208 8.62208 0 1 0-17.24416 0Z" fill="#60483C" p-id="16903"></path><path d="M520.62208 585.35936m-8.62208 0a8.62208 8.62208 0 1 0 17.24416 0 8.62208 8.62208 0 1 0-17.24416 0Z" fill="#60483C" p-id="16904"></path><path d="M520.62208 620.56448m-8.62208 0a8.62208 8.62208 0 1 0 17.24416 0 8.62208 8.62208 0 1 0-17.24416 0Z" fill="#60483C" p-id="16905"></path><path d="M520.62208 655.74912m-8.62208 0a8.62208 8.62208 0 1 0 17.24416 0 8.62208 8.62208 0 1 0-17.24416 0Z" fill="#60483C" p-id="16906"></path><path d="M520.62208 690.95424m-8.62208 0a8.62208 8.62208 0 1 0 17.24416 0 8.62208 8.62208 0 1 0-17.24416 0Z" fill="#60483C" p-id="16907"></path><path d="M552.73472 426.63936m-8.62208 0a8.62208 8.62208 0 1 0 17.24416 0 8.62208 8.62208 0 1 0-17.24416 0Z" fill="#60483C" p-id="16908"></path><path d="M552.73472 462.68416m-8.62208 0a8.62208 8.62208 0 1 0 17.24416 0 8.62208 8.62208 0 1 0-17.24416 0Z" fill="#60483C" p-id="16909"></path><path d="M552.73472 498.72896m-8.62208 0a8.62208 8.62208 0 1 0 17.24416 0 8.62208 8.62208 0 1 0-17.24416 0Z" fill="#60483C" p-id="16910"></path><path d="M552.73472 533.9136m-8.62208 0a8.62208 8.62208 0 1 0 17.24416 0 8.62208 8.62208 0 1 0-17.24416 0Z" fill="#60483C" p-id="16911"></path><path d="M552.73472 569.11872m-8.62208 0a8.62208 8.62208 0 1 0 17.24416 0 8.62208 8.62208 0 1 0-17.24416 0Z" fill="#60483C" p-id="16912"></path><path d="M552.73472 604.30336m-8.62208 0a8.62208 8.62208 0 1 0 17.24416 0 8.62208 8.62208 0 1 0-17.24416 0Z" fill="#60483C" p-id="16913"></path><path d="M425.34912 429.38368m-8.62208 0a8.62208 8.62208 0 1 0 17.24416 0 8.62208 8.62208 0 1 0-17.24416 0Z" fill="#60483C" p-id="16914"></path><path d="M425.34912 465.42848m-8.62208 0a8.62208 8.62208 0 1 0 17.24416 0 8.62208 8.62208 0 1 0-17.24416 0Z" fill="#60483C" p-id="16915"></path><path d="M425.34912 501.47328m-8.62208 0a8.62208 8.62208 0 1 0 17.24416 0 8.62208 8.62208 0 1 0-17.24416 0Z" fill="#60483C" p-id="16916"></path><path d="M425.34912 536.6784m-8.62208 0a8.62208 8.62208 0 1 0 17.24416 0 8.62208 8.62208 0 1 0-17.24416 0Z" fill="#60483C" p-id="16917"></path><path d="M425.34912 571.86304m-8.62208 0a8.62208 8.62208 0 1 0 17.24416 0 8.62208 8.62208 0 1 0-17.24416 0Z" fill="#60483C" p-id="16918"></path><path d="M425.34912 607.06816m-8.62208 0a8.62208 8.62208 0 1 0 17.24416 0 8.62208 8.62208 0 1 0-17.24416 0Z" fill="#60483C" p-id="16919"></path><path d="M393.13408 446.95552m-8.62208 0a8.62208 8.62208 0 1 0 17.24416 0 8.62208 8.62208 0 1 0-17.24416 0Z" fill="#60483C" p-id="16920"></path><path d="M393.13408 414.43328m-8.62208 0a8.62208 8.62208 0 1 0 17.24416 0 8.62208 8.62208 0 1 0-17.24416 0Z" fill="#60483C" p-id="16921"></path><path d="M356.08576 474.05056m-8.62208 0a8.62208 8.62208 0 1 0 17.24416 0 8.62208 8.62208 0 1 0-17.24416 0Z" fill="#60483C" p-id="16922"></path><path d="M326.12352 446.95552m-8.62208 0a8.62208 8.62208 0 1 0 17.24416 0 8.62208 8.62208 0 1 0-17.24416 0Z" fill="#60483C" p-id="16923"></path><path d="M318.5664 416.03072m-8.62208 0a8.62208 8.62208 0 1 0 17.24416 0 8.62208 8.62208 0 1 0-17.24416 0Z" fill="#60483C" p-id="16924"></path><path d="M356.08576 432.00512m-8.62208 0a8.62208 8.62208 0 1 0 17.24416 0 8.62208 8.62208 0 1 0-17.24416 0Z" fill="#60483C" p-id="16925"></path><path d="M355.84 400.77312m-8.62208 0a8.62208 8.62208 0 1 0 17.24416 0 8.62208 8.62208 0 1 0-17.24416 0Z" fill="#60483C" p-id="16926"></path><path d="M393.13408 483.00032m-8.62208 0a8.62208 8.62208 0 1 0 17.24416 0 8.62208 8.62208 0 1 0-17.24416 0Z" fill="#60483C" p-id="16927"></path><path d="M390.8608 512m-8.62208 0a8.62208 8.62208 0 1 0 17.24416 0 8.62208 8.62208 0 1 0-17.24416 0Z" fill="#60483C" p-id="16928"></path><path d="M393.13408 543.232m-8.62208 0a8.62208 8.62208 0 1 0 17.24416 0 8.62208 8.62208 0 1 0-17.24416 0Z" fill="#60483C" p-id="16929"></path><path d="M353.25952 548.29056m-8.62208 0a8.62208 8.62208 0 1 0 17.24416 0 8.62208 8.62208 0 1 0-17.24416 0Z" fill="#60483C" p-id="16930"></path><path d="M326.12352 577.7408m-8.62208 0a8.62208 8.62208 0 1 0 17.24416 0 8.62208 8.62208 0 1 0-17.24416 0Z" fill="#60483C" p-id="16931"></path><path d="M323.15392 613.39648m-8.62208 0a8.62208 8.62208 0 1 0 17.24416 0 8.62208 8.62208 0 1 0-17.24416 0Z" fill="#60483C" p-id="16932"></path><path d="M353.25952 586.36288m-8.62208 0a8.62208 8.62208 0 1 0 17.24416 0 8.62208 8.62208 0 1 0-17.24416 0Z" fill="#60483C" p-id="16933"></path><path d="M349.45024 623.8208m-8.62208 0a8.62208 8.62208 0 1 0 17.24416 0 8.62208 8.62208 0 1 0-17.24416 0Z" fill="#60483C" p-id="16934"></path><path d="M390.8608 577.7408m-8.62208 0a8.62208 8.62208 0 1 0 17.24416 0 8.62208 8.62208 0 1 0-17.24416 0Z" fill="#60483C" p-id="16935"></path><path d="M390.8608 611.9424m-8.62208 0a8.62208 8.62208 0 1 0 17.24416 0 8.62208 8.62208 0 1 0-17.24416 0Z" fill="#60483C" p-id="16936"></path><path d="M590.04928 408.20736m-8.62208 0a8.62208 8.62208 0 1 0 17.24416 0 8.62208 8.62208 0 1 0-17.24416 0Z" fill="#60483C" p-id="16937"></path><path d="M590.04928 444.25216m-8.62208 0a8.62208 8.62208 0 1 0 17.24416 0 8.62208 8.62208 0 1 0-17.24416 0Z" fill="#60483C" p-id="16938"></path><path d="M590.04928 480.29696m-8.62208 0a8.62208 8.62208 0 1 0 17.24416 0 8.62208 8.62208 0 1 0-17.24416 0Z" fill="#60483C" p-id="16939"></path><path d="M590.04928 515.50208m-8.62208 0a8.62208 8.62208 0 1 0 17.24416 0 8.62208 8.62208 0 1 0-17.24416 0Z" fill="#60483C" p-id="16940"></path><path d="M590.04928 550.68672m-8.62208 0a8.62208 8.62208 0 1 0 17.24416 0 8.62208 8.62208 0 1 0-17.24416 0Z" fill="#60483C" p-id="16941"></path><path d="M590.04928 585.89184m-8.62208 0a8.62208 8.62208 0 1 0 17.24416 0 8.62208 8.62208 0 1 0-17.24416 0Z" fill="#60483C" p-id="16942"></path><path d="M589.33248 615.79264m-8.62208 0a8.62208 8.62208 0 1 0 17.24416 0 8.62208 8.62208 0 1 0-17.24416 0Z" fill="#60483C" p-id="16943"></path><path d="M630.59968 397.70112m-8.62208 0a8.62208 8.62208 0 1 0 17.24416 0 8.62208 8.62208 0 1 0-17.24416 0Z" fill="#60483C" p-id="16944"></path><path d="M630.59968 473.12896m-8.62208 0a8.62208 8.62208 0 1 0 17.24416 0 8.62208 8.62208 0 1 0-17.24416 0Z" fill="#60483C" p-id="16945"></path><path d="M629.10464 429.89568m-8.62208 0a8.62208 8.62208 0 1 0 17.24416 0 8.62208 8.62208 0 1 0-17.24416 0Z" fill="#60483C" p-id="16946"></path><path d="M661.34016 444.25216m-8.62208 0a8.62208 8.62208 0 1 0 17.24416 0 8.62208 8.62208 0 1 0-17.24416 0Z" fill="#60483C" p-id="16947"></path><path d="M664.51456 412.13952m-8.62208 0a8.62208 8.62208 0 1 0 17.24416 0 8.62208 8.62208 0 1 0-17.24416 0Z" fill="#60483C" p-id="16948"></path><path d="M627.2 556.91264m-8.62208 0a8.62208 8.62208 0 1 0 17.24416 0 8.62208 8.62208 0 1 0-17.24416 0Z" fill="#60483C" p-id="16949"></path><path d="M657.44896 579.9936m-8.62208 0a8.62208 8.62208 0 1 0 17.24416 0 8.62208 8.62208 0 1 0-17.24416 0Z" fill="#60483C" p-id="16950"></path><path d="M627.2 592.11776m-8.62208 0a8.62208 8.62208 0 1 0 17.24416 0 8.62208 8.62208 0 1 0-17.24416 0Z" fill="#60483C" p-id="16951"></path><path d="M661.4016 609.36192m-8.62208 0a8.62208 8.62208 0 1 0 17.24416 0 8.62208 8.62208 0 1 0-17.24416 0Z" fill="#60483C" p-id="16952"></path><path d="M626.4832 622.01856m-8.62208 0a8.62208 8.62208 0 1 0 17.24416 0 8.62208 8.62208 0 1 0-17.24416 0Z" fill="#60483C" p-id="16953"></path></svg>