<?xml version="1.0" standalone="no"?><!DOCTYPE svg PUBLIC "-//W3C//DTD SVG 1.1//EN" "http://www.w3.org/Graphics/SVG/1.1/DTD/svg11.dtd"><svg t="1650353934619" class="icon" viewBox="0 0 1024 1024" version="1.1" xmlns="http://www.w3.org/2000/svg" p-id="6524" xmlns:xlink="http://www.w3.org/1999/xlink" width="200" height="200"><defs><style type="text/css">@font-face { font-family: feedback-iconfont; src: url("//at.alicdn.com/t/font_1031158_u69w8yhxdu.woff2?t=1630033759944") format("woff2"), url("//at.alicdn.com/t/font_1031158_u69w8yhxdu.woff?t=1630033759944") format("woff"), url("//at.alicdn.com/t/font_1031158_u69w8yhxdu.ttf?t=1630033759944") format("truetype"); }
</style></defs><path d="M599.722667 398.336m-119.808 0a119.808 119.808 0 1 0 239.616 0 119.808 119.808 0 1 0-239.616 0Z" fill="#A7E1F2" p-id="6525"></path><path d="M599.722667 518.144c-132.778667 0-240.298667 107.52-240.298667 240.298667h480.938667c-0.341333-132.437333-107.861333-240.298667-240.64-240.298667z" fill="#A7E1F2" p-id="6526"></path><path d="M531.114667 540.672c-78.506667 0-141.994667-63.829333-141.994667-141.994667 0-78.506667 63.829333-142.336 141.994667-142.336s141.994667 63.829333 141.994666 142.336c0 78.165333-63.488 141.994667-141.994666 141.994667z m0-239.616c-53.930667 0-97.621333 43.690667-97.621334 97.621333s43.690667 97.621333 97.621334 97.621334 97.621333-43.690667 97.621333-97.621334-43.690667-97.621333-97.621333-97.621333zM238.250667 590.165333c-64.853333 0-117.418667-52.565333-117.418667-117.418666S173.397333 354.986667 238.250667 354.986667s117.418667 52.565333 117.418666 117.418666-52.565333 117.76-117.418666 117.76z m0-190.464c-40.277333 0-73.045333 32.768-73.045334 73.045334s32.768 73.045333 73.045334 73.045333 73.045333-32.768 73.045333-73.045333-32.768-73.045333-73.045333-73.045334z" p-id="6527"></path><path d="M451.242667 780.970667H24.917333v-22.186667c0-117.76 95.573333-213.333333 213.333334-213.333333s213.333333 95.573333 213.333333 213.333333v22.186667z m-380.245334-44.373334h334.506667c-10.922667-82.602667-81.92-146.432-167.253333-146.432-85.674667 0-156.330667 63.829333-167.253334 146.432z" p-id="6528"></path><path d="M588.458667 736.597333H314.026667c11.264-109.909333 104.106667-195.925333 217.088-195.925333 56.32 0 107.861333 21.504 146.432 56.661333 13.653333-8.192 28.330667-14.677333 43.690666-19.114666-47.786667-50.517333-115.370667-82.261333-190.464-82.261334-144.725333 0-262.485333 117.76-262.485333 262.485334v22.186666h321.194667a162.87744 162.87744 0 0 1-1.024-44.032z" p-id="6529"></path><path d="M707.584 631.466667c-8.874667-12.288-18.773333-23.893333-30.037333-34.133334-48.810667 29.013333-82.944 79.872-89.088 139.264h45.056c6.144-45.738667 34.474667-84.650667 74.069333-105.130666z" p-id="6530"></path><path d="M846.506667 758.784m-161.450667 0a161.450667 161.450667 0 1 0 322.901333 0 161.450667 161.450667 0 1 0-322.901333 0Z" fill="#A7E1F2" p-id="6531"></path><path d="M846.506667 847.872v-163.157333" fill="#A7E1F2" p-id="6532"></path><path d="M771.413333 571.392c-17.408 0-34.133333 2.730667-50.176 7.168 11.264 11.946667 21.504 24.917333 30.72 38.912 6.485333-1.024 12.970667-1.365333 19.456-1.365333 76.8 0 139.264 62.464 139.264 139.264 0 76.8-62.464 139.264-139.264 139.264-67.925333 0-124.586667-48.810667-136.874666-113.322667h-45.056c12.629333 89.088 89.429333 158.037333 181.930666 158.037333 101.376 0 183.978667-82.602667 183.978667-183.978666s-82.602667-183.978667-183.978667-183.978667z" p-id="6533"></path><path d="M707.584 631.466667c13.653333-7.168 28.330667-11.946667 44.373333-13.994667-8.874667-13.994667-19.114667-26.965333-30.72-38.912-15.701333 4.437333-30.378667 10.922667-43.690666 19.114667 11.264 9.898667 21.162667 21.504 30.037333 33.792zM632.149333 755.370667c0-6.485333 0.682667-12.629333 1.365334-18.432h-45.056c-0.682667 6.144-1.024 12.288-1.024 18.432 0 8.874667 0.682667 17.408 2.048 25.941333h45.056c-1.365333-8.533333-2.389333-17.408-2.389334-25.941333zM793.6 780.970667v0.341333h59.392v-44.714667h-59.392v22.186667zM689.834667 736.597333h59.392v44.373334h-59.392zM749.226667 781.312h44.373333v62.805333h-44.373333zM793.6 736.597333v-55.637333h-11.605333c5.461333 17.749333 8.874667 36.522667 10.581333 55.637333h1.024z" p-id="6534"></path><path d="M781.994667 680.96h-32.768v55.637333h43.349333c-1.706667-19.114667-5.12-37.888-10.581333-55.637333zM793.6 758.784v-22.186667h-1.024c0.682667 7.509333 1.024 14.677333 1.024 22.186667z" p-id="6535"></path><path d="M793.6 780.970667v-22.186667c0-7.509333-0.341333-15.018667-1.024-22.186667h-43.349333v44.373334h44.373333z" p-id="6536"></path></svg>