<?xml version="1.0" standalone="no"?><!DOCTYPE svg PUBLIC "-//W3C//DTD SVG 1.1//EN" "http://www.w3.org/Graphics/SVG/1.1/DTD/svg11.dtd"><svg t="1650419119458" class="icon" viewBox="0 0 1024 1024" version="1.1" xmlns="http://www.w3.org/2000/svg" p-id="36205" data-spm-anchor-id="a313x.7781069.0.i18" xmlns:xlink="http://www.w3.org/1999/xlink" width="200" height="200"><defs><style type="text/css">@font-face { font-family: feedback-iconfont; src: url("//at.alicdn.com/t/font_1031158_u69w8yhxdu.woff2?t=1630033759944") format("woff2"), url("//at.alicdn.com/t/font_1031158_u69w8yhxdu.woff?t=1630033759944") format("woff"), url("//at.alicdn.com/t/font_1031158_u69w8yhxdu.ttf?t=1630033759944") format("truetype"); }
</style></defs><path d="M582.997333 542.037333h-202.069333c-54.954667 0-99.669333-44.714667-99.669333-99.669333s44.714667-99.669333 99.669333-99.669333h202.069333c54.954667 0 99.669333 44.714667 99.669334 99.669333s-44.373333 99.669333-99.669334 99.669333z" fill="#FBDF83" p-id="36206"></path><path d="M646.485333 774.144H320.512c-57.685333 0-104.789333-47.104-104.789333-104.789333v-205.482667c0-105.472 85.674667-191.488 191.488-191.488H559.786667c105.472 0 191.488 85.674667 191.488 191.488v205.482667c0 57.685333-47.104 104.789333-104.789334 104.789333zM407.210667 313.685333c-82.944 0-150.186667 67.242667-150.186667 150.186667v205.482667c0 35.157333 28.330667 63.488 63.488 63.488h325.973333c35.157333 0 63.488-28.330667 63.488-63.488v-205.482667c0-82.944-67.242667-150.186667-150.186666-150.186667h-152.576z" p-id="36207" data-spm-anchor-id="a313x.7781069.0.i20" class="selected" fill="#707070"></path><path d="M389.461333 517.461333c-39.936 0-72.704-32.426667-72.704-72.704 0-39.936 32.426667-72.704 72.704-72.704s72.704 32.426667 72.704 72.704c0 39.936-32.426667 72.704-72.704 72.704z m0-104.106666c-17.408 0-31.402667 13.994667-31.402666 31.402666s13.994667 31.402667 31.402666 31.402667 31.402667-13.994667 31.402667-31.402667-13.994667-31.402667-31.402667-31.402666zM483.328 236.544c-39.936 0-72.704-32.426667-72.704-72.704s32.426667-72.704 72.704-72.704c39.936 0 72.704 32.426667 72.704 72.704s-32.426667 72.704-72.704 72.704z m0-103.765333c-17.408 0-31.402667 13.994667-31.402667 31.402666s13.994667 31.402667 31.402667 31.402667 31.402667-13.994667 31.402667-31.402667-13.994667-31.402667-31.402667-31.402666zM577.536 517.461333c-39.936 0-72.704-32.426667-72.704-72.704 0-39.936 32.426667-72.704 72.704-72.704s72.704 32.426667 72.704 72.704c-0.341333 39.936-32.768 72.704-72.704 72.704z m0-104.106666c-17.408 0-31.402667 13.994667-31.402667 31.402666s13.994667 31.402667 31.402667 31.402667 31.402667-13.994667 31.402667-31.402667-14.336-31.402667-31.402667-31.402666zM572.074667 701.44h-177.152c-37.205333 0-67.242667-30.378667-67.242667-67.242667v-3.754666c0-37.205333 30.378667-67.242667 67.242667-67.242667h177.152c37.205333 0 67.242667 30.378667 67.242666 67.242667v3.754666c0 36.864-30.037333 67.242667-67.242666 67.242667zM394.922667 604.16c-14.336 0-26.282667 11.605333-26.282667 26.282667v3.754666c0 14.336 11.605333 26.282667 26.282667 26.282667h177.152c14.336 0 26.282667-11.605333 26.282666-26.282667v-3.754666c0-14.336-11.605333-26.282667-26.282666-26.282667h-177.152z" p-id="36208" data-spm-anchor-id="a313x.7781069.0.i19" class="selected" fill="#707070"></path><path d="M420.864 592.896h41.301333v75.434667h-41.301333zM461.482667 199.338667h41.301333v75.434666h-41.301333zM508.928 591.530667h41.301333v75.434666h-41.301333zM730.453333 640.341333h-20.48V443.733333h20.48c54.272 0 98.304 44.032 98.304 98.304s-44.032 98.304-98.304 98.304z m20.821334-151.552v106.837334c21.504-8.192 36.522667-29.013333 36.522666-53.248s-15.018667-45.397333-36.522666-53.589334zM252.245333 640.341333h-20.48c-54.272 0-98.304-44.032-98.304-98.304S177.493333 443.733333 231.765333 443.733333h20.48v196.608z m-40.96-151.552c-21.504 8.192-36.522667 29.013333-36.522666 53.248s15.36 45.056 36.522666 53.248v-106.496z" p-id="36209" data-spm-anchor-id="a313x.7781069.0.i17" class="selected" fill="#707070"></path></svg>