<?xml version="1.0" standalone="no"?><!DOCTYPE svg PUBLIC "-//W3C//DTD SVG 1.1//EN" "http://www.w3.org/Graphics/SVG/1.1/DTD/svg11.dtd"><svg t="1650418685755" class="icon" viewBox="0 0 1024 1024" version="1.1" xmlns="http://www.w3.org/2000/svg" p-id="34795" xmlns:xlink="http://www.w3.org/1999/xlink" width="200" height="200"><defs><style type="text/css">@font-face { font-family: feedback-iconfont; src: url("//at.alicdn.com/t/font_1031158_u69w8yhxdu.woff2?t=1630033759944") format("woff2"), url("//at.alicdn.com/t/font_1031158_u69w8yhxdu.woff?t=1630033759944") format("woff"), url("//at.alicdn.com/t/font_1031158_u69w8yhxdu.ttf?t=1630033759944") format("truetype"); }
</style></defs><path d="M555.690667 569.685333m-298.325334 0a298.325333 298.325333 0 1 0 596.650667 0 298.325333 298.325333 0 1 0-596.650667 0Z" fill="#A7E1F4" p-id="34796"></path><path d="M257.365333 607.232h409.6v29.354667h-409.6z" p-id="34797"></path><path d="M321.536 507.904h29.354667v123.221333h-29.354667zM404.48 416.768h29.354667v204.8h-29.354667zM495.274667 464.213333h29.354666v162.474667h-29.354666zM578.218667 344.405333h29.354666v269.653334h-29.354666zM651.226453 747.697493l20.753067-20.75648 54.306133 54.306134-20.753066 20.753066z" p-id="34798"></path><path d="M829.44 877.226667l-24.917333 24.917333c-12.970667 12.970667-33.792 12.970667-46.762667 0l-70.656-70.656c-12.970667-12.970667-12.970667-33.792 0-46.762667l24.917333-24.917333c12.970667-12.970667 33.792-12.970667 46.762667 0l70.656 70.656c12.970667 12.970667 12.970667 33.792 0 46.762667z m-121.173333-71.68c-1.365333 1.365333-1.365333 3.754667 0 5.12l70.656 70.656c1.365333 1.365333 3.754667 1.365333 5.12 0l24.917333-24.917334c1.365333-1.365333 1.365333-3.754667 0-5.12l-70.656-70.656c-1.365333-1.365333-3.754667-1.365333-5.12 0l-24.917333 24.917334zM468.309333 826.026667c-164.522667 0-298.325333-133.802667-298.325333-298.325334S303.786667 229.376 468.309333 229.376s298.325333 133.802667 298.325334 298.325333-133.802667 298.325333-298.325334 298.325334z m0-562.176c-145.408 0-263.850667 118.442667-263.850666 263.850666s118.442667 263.850667 263.850666 263.850667 263.850667-118.442667 263.850667-263.850667-118.442667-263.850667-263.850667-263.850666z" p-id="34799"></path></svg>