<?xml version="1.0" standalone="no"?><!DOCTYPE svg PUBLIC "-//W3C//DTD SVG 1.1//EN" "http://www.w3.org/Graphics/SVG/1.1/DTD/svg11.dtd"><svg t="1650434367238" class="icon" viewBox="0 0 1024 1024" version="1.1" xmlns="http://www.w3.org/2000/svg" p-id="6875" xmlns:xlink="http://www.w3.org/1999/xlink" width="200" height="200"><defs><style type="text/css">@font-face { font-family: feedback-iconfont; src: url("//at.alicdn.com/t/font_1031158_u69w8yhxdu.woff2?t=1630033759944") format("woff2"), url("//at.alicdn.com/t/font_1031158_u69w8yhxdu.woff?t=1630033759944") format("woff"), url("//at.alicdn.com/t/font_1031158_u69w8yhxdu.ttf?t=1630033759944") format("truetype"); }
</style></defs><path d="M720.896 892.245333h-453.973333c-62.464 0-113.322667-50.858667-113.322667-113.322666v-329.728c0-62.464 50.858667-113.322667 113.322667-113.322667h453.973333c62.464 0 113.322667 50.858667 113.322667 113.322667v329.728c0 62.464-50.858667 113.322667-113.322667 113.322666z m-453.973333-505.514666c-34.474667 0-62.464 27.989333-62.464 62.464v329.728c0 34.474667 27.989333 62.464 62.464 62.464h453.973333c34.474667 0 62.464-27.989333 62.464-62.464v-329.728c0-34.474667-27.989333-62.464-62.464-62.464h-453.973333z" p-id="6876" data-spm-anchor-id="a313x.7781069.0.i19" class="selected" fill="#707070"></path><path d="M335.872 510.293333h361.472v266.581334H335.872z" fill="#ffdf73" p-id="6877" data-spm-anchor-id="a313x.7781069.0.i16" class=""></path><path d="M654.677333 805.546667H333.141333c-46.762667 0-84.992-38.229333-84.992-84.992v-212.992c0-46.762667 38.229333-84.992 84.992-84.992h321.536c46.762667 0 84.992 38.229333 84.992 84.992v212.992c0 46.762667-38.229333 84.992-84.992 84.992z m-321.536-332.117334c-18.773333 0-34.133333 15.36-34.133333 34.133334v212.992c0 18.773333 15.36 34.133333 34.133333 34.133333h321.536c18.773333 0 34.133333-15.36 34.133334-34.133333v-212.992c0-18.773333-15.36-34.133333-34.133334-34.133334H333.141333z" p-id="6878" data-spm-anchor-id="a313x.7781069.0.i18" class="selected" fill="#707070"></path><path d="M493.909333 673.792c-4.437333 0-8.533333-1.024-12.629333-3.413333-7.850667-4.437333-12.970667-12.970667-12.970667-22.186667V587.093333L382.293333 636.245333c-12.288 6.826667-27.648 2.730667-34.816-9.557333-6.826667-12.288-2.730667-27.648 9.557334-34.816l124.245333-70.656c7.850667-4.437333 17.408-4.437333 25.258667 0 7.850667 4.437333 12.629333 12.970667 12.629333 21.845333v59.733334l102.741333-62.122667c11.946667-7.168 27.648-3.413333 34.816 8.533333 7.168 11.946667 3.413333 27.648-8.533333 34.816l-141.312 85.674667c-3.754667 2.730667-8.192 4.096-12.970667 4.096zM493.909333 372.736c-6.826667 0-13.653333-2.730667-18.773333-8.192l-102.741333-112.298667c-9.557333-10.24-8.874667-26.282667 1.706666-35.84 10.24-9.557333 26.282667-8.874667 35.84 1.706667l102.741334 112.298667c9.557333 10.24 8.874667 26.282667-1.706667 35.84-4.778667 4.437333-10.922667 6.485333-17.066667 6.485333z" p-id="6879" data-spm-anchor-id="a313x.7781069.0.i20" class="selected" fill="#707070"></path><path d="M539.306667 372.736c-6.144 0-12.288-2.048-17.066667-6.485333-10.24-9.557333-10.922667-25.6-1.706667-35.84l102.741334-112.298667c9.557333-10.24 25.6-10.922667 35.84-1.706667 10.24 9.557333 10.922667 25.6 1.706666 35.84l-102.741333 112.298667c-5.12 5.461333-11.946667 8.192-18.773333 8.192z" p-id="6880" data-spm-anchor-id="a313x.7781069.0.i21" class="selected" fill="#707070"></path></svg>